<svg width="405" height="385" viewBox="0 0 405 385" fill="none" xmlns="http://www.w3.org/2000/svg">
<path d="M405 334.549C404.746 317.25 404.391 301.278 403.888 287.502C405.41 213.058 401.815 175.296 402.539 98.2411C402.53 81.6161 402.475 66.1631 402.412 51.3557C402.378 43.952 402.344 36.7097 402.31 29.5657C402.281 19.7479 402.247 10.0704 402.217 0.421063C396.135 0.456152 390.079 0.491241 383.984 0.526329C379.489 0.526329 374.959 0.526329 370.358 0.526329C361.155 0.477205 351.643 0.322815 341.45 0C339.847 0.701772 337.449 1.20705 334.421 1.57197C334.345 1.57197 334.273 1.57197 334.197 1.57197L334.07 1.61408C312.543 4.09133 260.513 -0.484223 234.892 2.70182C224.94 3.04569 217.29 3.77553 214.071 4.52643C202.597 4.54047 191.127 4.50538 179.953 4.40713L184.127 3.37552C177.458 2.96148 170.154 2.1404 161.695 2.20356C169.278 1.92987 182.072 1.979 189.761 2.10532C192.155 1.32635 176.041 1.01757 170.67 0.687737L163.509 0.940375C145.602 1.21407 144.993 2.11233 156.341 2.58252C156.641 2.5334 157.022 2.49129 157.466 2.44918L148.884 3.93694C148.571 3.92992 148.25 3.92291 147.937 3.91589C147.941 3.565 145.374 3.31938 141.246 3.14394C137.118 2.9685 131.434 2.87025 125.204 2.81411C112.749 2.70884 98.1239 2.77902 89.4622 2.82112C75.332 2.32287 60.301 2.46322 45.6717 2.72288C38.3592 2.86323 31.144 3.00358 24.1952 3.14394C20.7187 3.20008 17.3141 3.2492 13.9898 3.29833C12.3277 3.31236 10.6909 3.3264 9.07532 3.34044C6.44045 3.34044 3.83941 3.34745 1.28912 3.35447C1.28489 7.2072 1.28066 10.9968 1.27643 14.7232C1.26375 17.1583 1.25529 19.5444 1.2426 21.8883C1.21299 26.2393 1.16647 30.4148 1.10303 34.4079C1.02267 30.6253 0.971922 26.4428 0.933858 22.0427C0.92117 19.6637 0.904253 17.2285 0.887335 14.7513C0.878877 10.7582 0.870418 6.70894 0.861959 2.64568C8.84271 2.63866 16.9715 2.63165 23.417 2.62463C28.8771 2.59656 32.9118 2.49831 33.9649 2.15444L26.8174 1.70531C23.5608 1.64215 19.9151 1.56495 16.0918 1.49477C14.1801 1.45969 12.2262 1.4246 10.2511 1.38951C6.86338 1.36144 3.44608 1.32635 0.0456982 1.29828C0.0372395 8.52653 0.0203222 15.7267 0.00340487 22.6743C-0.00505379 27.327 0.00340487 31.8113 0.0160929 35.9799C0.0499275 44.3239 0.147202 51.4188 0.329063 56.1348C0.66741 41.3133 0.967693 40.3168 1.21722 35.3834C1.36948 47.2644 1.60209 49.2644 1.68668 64.1209C1.72051 75.0124 1.70783 86.4022 1.6317 95.0691C1.5598 103.736 1.42446 109.687 1.21299 109.687C1.06074 97.7709 1.21299 84.9004 1.17916 74.0019C0.709703 70.0018 0.675869 108.648 0.523613 121.526C1.59786 98.7674 2.0504 159.211 2.73978 97.82L2.79476 106.066C2.73555 109.498 2.6848 112.971 2.64674 116.522L2.86666 117.659L2.95548 131.505C3.15426 136.895 3.31074 135.267 3.44608 129.856C3.50952 136.389 3.52644 143.786 3.48837 151.014L3.32343 152.334C3.23884 160.292 3.14157 168.355 3.04429 176.545C3.02315 177.092 3.002 177.626 2.98085 178.138C2.95971 180.706 2.94279 183.317 2.93433 185.963C2.63828 211.64 2.37183 238.701 2.38029 268.154C3.02315 288.92 3.05275 252.806 3.32343 236.413C3.73368 262.863 4.37653 289.937 4.8037 314.155C4.46958 335.412 4.76563 341.419 5.19702 346.921C5.41272 349.672 5.66225 352.29 5.88641 356.627C5.99637 358.795 6.1021 361.392 6.19092 364.641C6.22898 366.234 6.26705 367.988 6.31357 369.932C6.35163 371.385 6.38124 372.95 6.41084 374.648C6.38124 375.939 6.36009 377.315 6.34317 378.76C7.67541 378.803 9.1303 378.824 10.6444 378.831C12.5645 378.824 14.5565 378.81 16.5782 378.803C19.1411 378.774 21.7464 378.739 24.3305 378.711C30.8606 378.957 39.1247 379.167 47.1351 379.357C38.7018 379.546 33.4574 380.234 28.0989 380.838C25.1214 381.175 22.1101 381.483 18.4983 381.673C16.6923 381.764 14.7342 381.834 12.5561 381.855C10.4202 381.876 8.11526 381.855 5.57344 381.778C5.57344 381.68 5.58189 381.575 5.58189 381.469L12.8056 380.578C9.88312 380.599 9.39675 380.466 6.45737 380.487L5.59458 380.943C5.6834 377.687 5.77221 371.792 5.84834 368.311C5.86526 361.399 5.42964 343.517 5.26046 363.35C5.24355 369.665 5.32813 376.838 5.37889 381.055L4.28772 381.631L5.38312 381.497C5.38312 381.736 5.38734 381.961 5.39157 382.178C5.39157 382.192 5.39157 382.206 5.39157 382.22C5.06592 382.255 4.66836 382.29 4.1989 382.318C4.11432 379.469 4.04242 374.697 3.96629 369.469C3.89016 364.437 3.81826 359.104 3.73368 354.921C3.5645 346.549 3.34881 342.774 3.01469 355.251C3.09505 359.616 3.17963 364.051 3.26422 368.543C3.32766 373.49 3.38687 378.501 3.45454 383.561C8.48322 383.448 13.5965 383.329 18.7647 383.21C23.6538 383.154 28.5937 383.097 33.5547 383.034C43.4809 382.999 53.496 382.964 63.363 382.929C83.0929 382.866 102.218 382.697 118.81 381.645C115.98 384.557 166.022 383.364 182.702 382.964L183.772 383.743C198.118 384.15 208.729 384.332 231.513 383.357C231.754 383.357 231.991 383.357 232.232 383.357C234.351 383.561 237.239 383.687 241.82 383.687C249.568 383.596 253.971 383.399 256.394 383.161C274.902 383.055 292.715 383.175 308.66 384.318C327.739 385.497 348.86 384.992 366.272 383.975C369.431 383.947 372.616 383.932 375.83 383.932C383.257 383.954 390.828 383.982 398.529 384.01C398.593 359.876 398.66 334.942 398.728 309.348C398.741 299.229 398.745 288.99 398.728 278.66C398.961 285.116 399.345 288.976 399.481 304.253C399.341 310.499 399.219 322.387 398.889 317.987C399.096 334.331 398.271 377.504 399.383 378.936C399.328 380.353 399.282 380.894 399.231 382.171C401.185 376.697 403.143 358.248 404.983 334.542L405 334.549ZM5.57344 382.206C5.57766 382.08 5.58189 381.939 5.59035 381.799C6.71958 381.954 6.60539 382.087 5.57344 382.206ZM394.549 375.343C394.541 376.122 394.532 376.803 394.524 377.336C385.084 377.174 378.926 377.062 374.316 376.985C369.042 376.859 365.536 376.732 361.802 376.599C355.656 376.381 348.902 376.157 332.64 375.925L327.455 375.497L336.937 374.894C332.095 373.883 344.639 372.992 343.193 371.953L308.753 371.967C327.231 372.873 315.046 374.016 309.654 375.111L291.895 374.732C295.849 375.202 306.025 375.624 295.596 376.213C294.572 376.227 293.549 376.248 292.517 376.262C285.589 376.164 276.855 376.641 269.496 375.967L283.614 373.75C261.939 375.504 245.588 371.167 223.875 372.922L217.268 370.613L196.794 370.774L199.103 369.967L174.548 369.637C161.272 370.009 159.305 371.076 156.962 371.883C146.736 371.967 136.882 372.304 132.741 371.813L144.617 370.402L133.65 369.967C141.153 370.43 124.511 370.83 121.812 371.378C97.2231 371.055 104.413 371.258 88.9885 370.072C73.0355 370.992 53.4875 369.308 52.5825 371.153C44.6736 370.858 36.621 370.648 28.5387 370.487C24.4955 370.423 20.448 370.353 16.4048 370.29L13.3723 370.255L11.8625 370.241L11.7948 370.227L11.5495 370.171L11.5706 369.813V369.729L11.5791 369.686V369.665V369.658V369.588C11.5791 368.192 11.5833 366.802 11.5875 365.413C11.596 359.855 11.6045 354.325 11.6129 348.851C11.6214 337.896 11.6256 327.138 11.6341 316.668L10.9405 296.464C11.7313 241.999 10.7078 217.29 10.5429 160.741L10.8728 165.197L9.99309 134.256C10.6613 91.6655 9.0288 75.0405 9.99309 25.5726C10.0058 24.0357 10.0185 22.5269 10.0312 21.0391C10.0396 20.6461 10.0523 20.2602 10.0608 19.8812C10.0734 19.2145 10.0861 18.5689 10.0946 17.9583C10.4625 17.9583 10.8178 17.9583 11.1604 17.9654C11.8328 17.9513 12.4842 17.9443 13.1186 17.9303C15.8719 17.8952 18.4433 17.832 20.854 17.7408C25.6797 17.5654 29.8625 17.2917 33.5505 16.9408C40.9306 16.246 46.3357 15.2565 50.9457 14.1758C66.5139 12.9968 86.0957 14.6811 100.078 14.8284L90.9552 15.6916L102.586 16.646C122.696 16.218 123.779 17.0039 149.984 16.0004C185.303 17.011 180.587 13.2495 194.967 11.7617C198.097 11.9652 198.511 12.2319 194.396 12.3793C199.45 12.4775 204.513 12.5617 209.575 12.6459L229.973 14.0425L229.22 13.5231C230.574 13.3337 231.813 13.1723 232.968 13.0249C253.878 13.3407 274.834 13.5933 295.811 13.7898C312.763 13.9161 329.718 14.0495 346.665 14.1758C362.394 14.253 378.11 14.3302 393.796 14.4074C393.775 34.4851 393.758 54.5207 393.737 74.5071C393.065 128.937 394.021 179.485 392.811 232.911L393.014 224.027C393.132 222.749 393.183 229.599 393.234 234.995C393.467 226.146 393.687 217.613 393.898 209.451C393.809 225.318 393.742 241.346 393.754 257.094C394.566 274.61 393.742 347.454 394.566 369.848C394.558 371.806 394.549 373.694 394.545 375.371L394.549 375.343ZM398.669 252.863C398.66 251.326 398.652 249.789 398.643 248.252C398.669 248.933 398.69 249.564 398.707 250.084C398.694 251.045 398.681 251.964 398.669 252.863Z" fill="url(#paint0_linear_2749_23)"/>
<path d="M405 334.549C404.746 317.25 404.391 301.278 403.888 287.502C405.41 213.058 401.815 175.296 402.539 98.2411C402.53 81.6161 402.475 66.1631 402.412 51.3557C402.378 43.952 402.344 36.7097 402.31 29.5657C402.281 19.7479 402.247 10.0704 402.217 0.421063C396.135 0.456152 390.079 0.491241 383.984 0.526329C379.489 0.526329 374.959 0.526329 370.358 0.526329C361.155 0.477205 351.643 0.322815 341.45 0C339.847 0.701772 337.449 1.20705 334.421 1.57197C334.345 1.57197 334.273 1.57197 334.197 1.57197L334.07 1.61408C312.543 4.09133 260.513 -0.484223 234.892 2.70182C224.94 3.04569 217.29 3.77553 214.071 4.52643C202.597 4.54047 191.127 4.50538 179.953 4.40713L184.127 3.37552C177.458 2.96148 170.154 2.1404 161.695 2.20356C169.278 1.92987 182.072 1.979 189.761 2.10532C192.155 1.32635 176.041 1.01757 170.67 0.687737L163.509 0.940375C145.602 1.21407 144.993 2.11233 156.341 2.58252C156.641 2.5334 157.022 2.49129 157.466 2.44918L148.884 3.93694C148.571 3.92992 148.25 3.92291 147.937 3.91589C147.941 3.565 145.374 3.31938 141.246 3.14394C137.118 2.9685 131.434 2.87025 125.204 2.81411C112.749 2.70884 98.1239 2.77902 89.4622 2.82112C75.332 2.32287 60.301 2.46322 45.6717 2.72288C38.3592 2.86323 31.144 3.00358 24.1952 3.14394C20.7187 3.20008 17.3141 3.2492 13.9898 3.29833C12.3277 3.31236 10.6909 3.3264 9.07532 3.34044C6.44045 3.34044 3.83941 3.34745 1.28912 3.35447C1.28489 7.2072 1.28066 10.9968 1.27643 14.7232C1.26375 17.1583 1.25529 19.5444 1.2426 21.8883C1.21299 26.2393 1.16647 30.4148 1.10303 34.4079C1.02267 30.6253 0.971922 26.4428 0.933858 22.0427C0.92117 19.6637 0.904253 17.2285 0.887335 14.7513C0.878877 10.7582 0.870418 6.70894 0.861959 2.64568C8.84271 2.63866 16.9715 2.63165 23.417 2.62463C28.8771 2.59656 32.9118 2.49831 33.9649 2.15444L26.8174 1.70531C23.5608 1.64215 19.9151 1.56495 16.0918 1.49477C14.1801 1.45969 12.2262 1.4246 10.2511 1.38951C6.86338 1.36144 3.44608 1.32635 0.0456982 1.29828C0.0372395 8.52653 0.0203222 15.7267 0.00340487 22.6743C-0.00505379 27.327 0.00340487 31.8113 0.0160929 35.9799C0.0499275 44.3239 0.147202 51.4188 0.329063 56.1348C0.66741 41.3133 0.967693 40.3168 1.21722 35.3834C1.36948 47.2644 1.60209 49.2644 1.68668 64.1209C1.72051 75.0124 1.70783 86.4022 1.6317 95.0691C1.5598 103.736 1.42446 109.687 1.21299 109.687C1.06074 97.7709 1.21299 84.9004 1.17916 74.0019C0.709703 70.0018 0.675869 108.648 0.523613 121.526C1.59786 98.7674 2.0504 159.211 2.73978 97.82L2.79476 106.066C2.73555 109.498 2.6848 112.971 2.64674 116.522L2.86666 117.659L2.95548 131.505C3.15426 136.895 3.31074 135.267 3.44608 129.856C3.50952 136.389 3.52644 143.786 3.48837 151.014L3.32343 152.334C3.23884 160.292 3.14157 168.355 3.04429 176.545C3.02315 177.092 3.002 177.626 2.98085 178.138C2.95971 180.706 2.94279 183.317 2.93433 185.963C2.63828 211.64 2.37183 238.701 2.38029 268.154C3.02315 288.92 3.05275 252.806 3.32343 236.413C3.73368 262.863 4.37653 289.937 4.8037 314.155C4.46958 335.412 4.76563 341.419 5.19702 346.921C5.41272 349.672 5.66225 352.29 5.88641 356.627C5.99637 358.795 6.1021 361.392 6.19092 364.641C6.22898 366.234 6.26705 367.988 6.31357 369.932C6.35163 371.385 6.38124 372.95 6.41084 374.648C6.38124 375.939 6.36009 377.315 6.34317 378.76C7.67541 378.803 9.1303 378.824 10.6444 378.831C12.5645 378.824 14.5565 378.81 16.5782 378.803C19.1411 378.774 21.7464 378.739 24.3305 378.711C30.8606 378.957 39.1247 379.167 47.1351 379.357C38.7018 379.546 33.4574 380.234 28.0989 380.838C25.1214 381.175 22.1101 381.483 18.4983 381.673C16.6923 381.764 14.7342 381.834 12.5561 381.855C10.4202 381.876 8.11526 381.855 5.57344 381.778C5.57344 381.68 5.58189 381.575 5.58189 381.469L12.8056 380.578C9.88312 380.599 9.39675 380.466 6.45737 380.487L5.59458 380.943C5.6834 377.687 5.77221 371.792 5.84834 368.311C5.86526 361.399 5.42964 343.517 5.26046 363.35C5.24355 369.665 5.32813 376.838 5.37889 381.055L4.28772 381.631L5.38312 381.497C5.38312 381.736 5.38734 381.961 5.39157 382.178C5.39157 382.192 5.39157 382.206 5.39157 382.22C5.06592 382.255 4.66836 382.29 4.1989 382.318C4.11432 379.469 4.04242 374.697 3.96629 369.469C3.89016 364.437 3.81826 359.104 3.73368 354.921C3.5645 346.549 3.34881 342.774 3.01469 355.251C3.09505 359.616 3.17963 364.051 3.26422 368.543C3.32766 373.49 3.38687 378.501 3.45454 383.561C8.48322 383.448 13.5965 383.329 18.7647 383.21C23.6538 383.154 28.5937 383.097 33.5547 383.034C43.4809 382.999 53.496 382.964 63.363 382.929C83.0929 382.866 102.218 382.697 118.81 381.645C115.98 384.557 166.022 383.364 182.702 382.964L183.772 383.743C198.118 384.15 208.729 384.332 231.513 383.357C231.754 383.357 231.991 383.357 232.232 383.357C234.351 383.561 237.239 383.687 241.82 383.687C249.568 383.596 253.971 383.399 256.394 383.161C274.902 383.055 292.715 383.175 308.66 384.318C327.739 385.497 348.86 384.992 366.272 383.975C369.431 383.947 372.616 383.932 375.83 383.932C383.257 383.954 390.828 383.982 398.529 384.01C398.593 359.876 398.66 334.942 398.728 309.348C398.741 299.229 398.745 288.99 398.728 278.66C398.961 285.116 399.345 288.976 399.481 304.253C399.341 310.499 399.219 322.387 398.889 317.987C399.096 334.331 398.271 377.504 399.383 378.936C399.328 380.353 399.282 380.894 399.231 382.171C401.185 376.697 403.143 358.248 404.983 334.542L405 334.549ZM5.57344 382.206C5.57766 382.08 5.58189 381.939 5.59035 381.799C6.71958 381.954 6.60539 382.087 5.57344 382.206ZM394.549 375.343C394.541 376.122 394.532 376.803 394.524 377.336C385.084 377.174 378.926 377.062 374.316 376.985C369.042 376.859 365.536 376.732 361.802 376.599C355.656 376.381 348.902 376.157 332.64 375.925L327.455 375.497L336.937 374.894C332.095 373.883 344.639 372.992 343.193 371.953L308.753 371.967C327.231 372.873 315.046 374.016 309.654 375.111L291.895 374.732C295.849 375.202 306.025 375.624 295.596 376.213C294.572 376.227 293.549 376.248 292.517 376.262C285.589 376.164 276.855 376.641 269.496 375.967L283.614 373.75C261.939 375.504 245.588 371.167 223.875 372.922L217.268 370.613L196.794 370.774L199.103 369.967L174.548 369.637C161.272 370.009 159.305 371.076 156.962 371.883C146.736 371.967 136.882 372.304 132.741 371.813L144.617 370.402L133.65 369.967C141.153 370.43 124.511 370.83 121.812 371.378C97.2231 371.055 104.413 371.258 88.9885 370.072C73.0355 370.992 53.4875 369.308 52.5825 371.153C44.6736 370.858 36.621 370.648 28.5387 370.487C24.4955 370.423 20.448 370.353 16.4048 370.29L13.3723 370.255L11.8625 370.241L11.7948 370.227L11.5495 370.171L11.5706 369.813V369.729L11.5791 369.686V369.665V369.658V369.588C11.5791 368.192 11.5833 366.802 11.5875 365.413C11.596 359.855 11.6045 354.325 11.6129 348.851C11.6214 337.896 11.6256 327.138 11.6341 316.668L10.9405 296.464C11.7313 241.999 10.7078 217.29 10.5429 160.741L10.8728 165.197L9.99309 134.256C10.6613 91.6655 9.0288 75.0405 9.99309 25.5726C10.0058 24.0357 10.0185 22.5269 10.0312 21.0391C10.0396 20.6461 10.0523 20.2602 10.0608 19.8812C10.0734 19.2145 10.0861 18.5689 10.0946 17.9583C10.4625 17.9583 10.8178 17.9583 11.1604 17.9654C11.8328 17.9513 12.4842 17.9443 13.1186 17.9303C15.8719 17.8952 18.4433 17.832 20.854 17.7408C25.6797 17.5654 29.8625 17.2917 33.5505 16.9408C40.9306 16.246 46.3357 15.2565 50.9457 14.1758C66.5139 12.9968 86.0957 14.6811 100.078 14.8284L90.9552 15.6916L102.586 16.646C122.696 16.218 123.779 17.0039 149.984 16.0004C185.303 17.011 180.587 13.2495 194.967 11.7617C198.097 11.9652 198.511 12.2319 194.396 12.3793C199.45 12.4775 204.513 12.5617 209.575 12.6459L229.973 14.0425L229.22 13.5231C230.574 13.3337 231.813 13.1723 232.968 13.0249C253.878 13.3407 274.834 13.5933 295.811 13.7898C312.763 13.9161 329.718 14.0495 346.665 14.1758C362.394 14.253 378.11 14.3302 393.796 14.4074C393.775 34.4851 393.758 54.5207 393.737 74.5071C393.065 128.937 394.021 179.485 392.811 232.911L393.014 224.027C393.132 222.749 393.183 229.599 393.234 234.995C393.467 226.146 393.687 217.613 393.898 209.451C393.809 225.318 393.742 241.346 393.754 257.094C394.566 274.61 393.742 347.454 394.566 369.848C394.558 371.806 394.549 373.694 394.545 375.371L394.549 375.343ZM398.669 252.863C398.66 251.326 398.652 249.789 398.643 248.252C398.669 248.933 398.69 249.564 398.707 250.084C398.694 251.045 398.681 251.964 398.669 252.863Z" fill="black" fill-opacity="0.4"/>
<defs>
<linearGradient id="paint0_linear_2749_23" x1="202.5" y1="0" x2="202.5" y2="385" gradientUnits="userSpaceOnUse">
<stop stop-color="#D83928"/>
<stop offset="0.18" stop-color="#C63425"/>
<stop offset="1" stop-color="#721E15"/>
</linearGradient>
</defs>
</svg>
