<svg width="32" height="32" viewBox="0 0 32 32" fill="none" xmlns="http://www.w3.org/2000/svg">
<g id="OBJECTS">
<g id="Group">
<path id="Vector" d="M16 32C7.17929 32 0 24.8207 0 16C0 7.17929 7.17929 0 16 0C24.8207 0 32 7.17929 32 16C32 24.8207 24.8207 32 16 32ZM16 1.472C7.98871 1.472 1.472 7.98871 1.472 16C1.472 24.0113 7.98871 30.528 16 30.528C24.0113 30.528 30.528 24.0113 30.528 16C30.528 7.98871 24.0113 1.472 16 1.472Z" fill="white"/>
<g id="Group_2">
<path id="Vector_2" d="M24.7302 29.1238C24.5683 29.1238 24.4064 29.0711 24.2747 28.9657L15.9584 22.3963L7.64218 28.9657C7.38618 29.1652 7.0323 29.1765 6.76501 28.9921C6.49771 28.8076 6.38477 28.4688 6.48642 28.1601L15.2582 1.22735C15.3561 0.926175 15.6384 0.719116 15.9584 0.719116C16.2784 0.719116 16.5608 0.92241 16.6587 1.22735L25.4304 28.1601C25.5321 28.4688 25.4191 28.8076 25.1518 28.9921C25.0238 29.0786 24.877 29.1238 24.7302 29.1238ZM15.9547 20.721C16.1165 20.721 16.2784 20.7737 16.4102 20.8791L23.2732 26.3003L15.9547 3.82876L8.63606 26.3003L15.4991 20.8791C15.6309 20.7737 15.7928 20.721 15.9547 20.721Z" fill="white"/>
<path id="Vector_3" d="M15.9547 22.193C15.8079 22.193 15.6573 22.1478 15.5293 22.0575L1.75801 12.3182C1.49448 12.1337 1.3853 11.7986 1.48319 11.4937C1.58107 11.1887 1.86342 10.9817 2.18342 10.9817H29.8164C30.1364 10.9817 30.4225 11.1887 30.5166 11.4937C30.6145 11.7986 30.5015 12.1337 30.238 12.3182L16.3764 22.0575C16.2484 22.1478 16.1015 22.1892 15.9547 22.1892V22.193ZM4.49872 12.4537L15.9585 20.5553L27.4898 12.4537H4.49872Z" fill="white"/>
</g>
</g>
</g>
</svg>
