<svg width="250" height="58" viewBox="0 0 250 58" fill="none" xmlns="http://www.w3.org/2000/svg">
<path id="Vector" d="M249.703 39.9002C249.545 33.7264 249.324 28.0259 249.01 23.1094C249.959 -3.45929 249.549 62.6052 250 35.1048C249.995 29.1714 249.96 23.6563 249.921 18.3716C249.9 15.7293 249.879 13.1445 249.858 10.5948C249.839 7.09092 249.818 3.63709 249.8 0.193282C246.01 0.205804 242.236 0.218327 238.439 0.23085C235.637 0.23085 232.815 0.23085 229.948 0.23085C224.213 0.213318 218.286 0.158217 211.935 0.0430056C210.936 0.293465 209.442 0.473794 207.555 0.604033C207.507 0.604033 207.463 0.604033 207.415 0.604033L207.336 0.61906C193.922 1.50318 161.502 -0.129809 145.537 1.00727C139.336 1.13 134.568 1.39048 132.563 1.65847C125.413 1.66348 118.266 1.65095 111.303 1.61589L113.905 1.24772C109.749 1.09994 105.197 0.806907 99.9266 0.829449C104.652 0.73177 112.624 0.749302 117.415 0.794384C118.906 0.516375 108.866 0.406172 105.519 0.288456L101.057 0.37862C89.899 0.476299 89.5195 0.796889 96.5902 0.964696C96.7773 0.947164 97.0145 0.932137 97.2912 0.917109L91.944 1.44808C91.749 1.44558 91.5487 1.44307 91.3537 1.44057C91.3564 1.31534 89.7567 1.22768 87.1846 1.16506C84.6125 1.10245 81.0706 1.06738 77.1887 1.04735C69.4275 1.00978 60.3144 1.03482 54.9172 1.04985C46.1125 0.872027 36.7464 0.922118 27.6307 1.01479C23.0741 1.06488 18.5782 1.11497 14.2483 1.16506C12.082 1.1851 9.96055 1.20263 7.88915 1.22016C6.85346 1.22517 5.83357 1.23018 4.82686 1.23519C3.18503 1.23519 2.39235 1.2377 0.803221 1.2402C0.800586 2.61522 0.797951 3.9677 0.795315 5.29764C0.787409 6.16673 0.782138 7.01829 0.774232 7.85482C0.755785 9.40767 0.726796 10.8979 0.687265 12.323C0.637193 10.973 0.605569 9.4803 0.581851 7.90992C0.573945 7.06087 0.563403 6.19178 0.552862 5.30765C0.547591 3.88254 0.54232 2.4374 0.53705 0.987238C5.50998 0.984733 9.74708 0.982229 13.7634 0.979724C17.1656 0.969706 19.6798 0.934641 20.336 0.811916L15.8822 0.65162C13.853 0.629079 11.5813 0.601528 9.19893 0.576482C8.00774 0.563959 6.79021 0.551437 5.55949 0.538914C3.44857 0.528895 2.14726 0.516373 0.0284244 0.506355C0.0231537 3.08608 0.0126122 5.65579 0.00207079 8.13534C-0.00319994 9.79588 0.00207079 11.3963 0.00997688 12.884C0.0310598 15.862 0.0916732 18.3941 0.204994 20.0772C0.415823 14.7875 0.602934 14.4319 0.75842 12.6712C0.853293 16.9114 0.998238 17.6252 1.05095 22.9274C1.07203 26.8146 1.06412 30.8795 1.01669 33.9727C0.971885 37.0659 0.887553 39.1898 0.755785 39.1898C0.660912 34.937 0.755785 30.3435 0.734702 26.4539C0.442176 25.0263 0.421094 38.8191 0.32622 43.415C0.995603 35.2926 1.27759 56.8646 1.70715 34.9545L1.74141 37.8974C1.70452 39.1221 1.67289 40.3619 1.64917 41.6292L1.78621 42.035L1.84155 46.9765C1.96542 48.9 2.06293 48.319 2.14726 46.3879C2.18679 48.7197 2.19733 51.3595 2.17361 53.9393L2.07083 48.4105C2.01812 51.2507 1.95751 54.1285 1.8969 57.0513C1.88372 57.2467 1.86527 52.8536 1.8521 53.0364C1.83892 53.9531 1.82838 54.8848 1.82311 55.8291C1.63863 64.9934 1.47787 5.78654 1.48314 16.2983C1.88372 23.7094 1.90217 10.8208 2.07083 4.97004C2.32646 14.4098 1.89897 24.0725 2.16514 32.7159C1.95695 40.3023 2.14142 42.4462 2.41023 44.4098C2.54463 45.3916 2.70012 46.3258 2.8398 47.8737C2.90831 48.6476 2.9742 49.5743 3.02954 50.7339C3.05326 51.3024 3.07698 51.9286 3.10597 52.6223C3.12969 53.1408 3.14813 53.6993 3.16658 54.3054C3.14813 54.7663 3.13496 55.2572 3.12441 55.7731C3.95455 55.7882 4.86112 55.7957 5.80458 55.7982C7.00104 55.7957 8.24229 55.7907 9.502 55.7882C11.099 55.7781 12.7224 55.7656 14.3326 55.7556C18.4016 55.8433 23.5511 55.9184 28.5425 55.986C23.2876 56.0536 20.0197 56.2991 16.6807 56.5145C14.8254 56.6347 12.9491 56.7449 10.6985 56.8125C9.57315 56.8451 8.35298 56.8701 6.99577 56.8777C5.66491 56.8852 4.22863 56.8776 2.64478 56.8501C2.64478 56.815 2.65005 56.7775 2.65005 56.7399L7.15125 56.4218C5.33022 56.4293 5.02715 56.3818 3.19557 56.3893L2.65796 56.5521C2.7133 55.3899 2.76864 53.2861 2.81608 52.0438C2.82662 49.5768 2.55518 43.1951 2.44976 50.2731C2.43922 52.5272 2.49193 55.0869 2.52355 56.5921L1.84363 56.7975L2.52619 56.7499C2.52619 56.8351 2.52882 56.9152 2.53146 56.9929C2.53146 56.9979 2.53146 57.0029 2.53146 57.0079C2.32853 57.0204 2.08081 57.0329 1.78829 57.043C1.73558 56.0261 1.69078 54.323 1.64334 52.4571C1.5959 50.6613 2.37917 48.7578 2.32646 47.265C2.22105 44.2771 2.08664 42.9296 1.87845 47.3828C1.92852 48.9406 1.98123 50.5235 2.03394 52.1265C2.07347 53.8922 2.11036 55.6805 2.15253 57.4863C5.28597 57.4462 7.64406 57.4036 10.8645 57.361C13.911 57.341 16.9891 57.321 20.0803 57.2984C26.2655 57.2859 32.5061 57.2734 38.6544 57.2609C50.9484 57.2383 62.8655 57.1782 73.204 56.8025C71.441 57.8419 102.623 57.4161 113.016 57.2734L113.683 57.5514C122.622 57.6967 129.234 57.7618 143.431 57.4136C143.581 57.4136 143.729 57.4136 143.879 57.4136C145.199 57.4863 146.999 57.5314 149.854 57.5314C154.682 57.4988 157.425 57.4287 158.935 57.3435C170.467 57.3059 181.568 57.3485 191.503 57.7568C203.391 58.1775 216.552 57.9972 227.402 57.634C229.37 57.624 231.355 57.619 233.358 57.619C237.985 57.6265 242.703 57.6365 247.502 57.6466C247.541 49.0333 247.583 40.1345 247.626 31.0002C247.633 27.3886 247.636 23.7344 247.626 20.0477C247.77 22.3519 248.01 23.7294 248.095 29.1819C248.008 31.411 247.931 35.6538 247.726 34.0834C247.855 39.9166 247.341 55.3248 248.034 55.8357C248 56.3417 247.971 56.5345 247.939 56.9903C249.157 55.0368 248.546 48.3582 249.693 39.8977L249.703 39.9002ZM2.64478 57.0029C2.64741 56.9578 2.65005 56.9077 2.65532 56.8576C3.35896 56.9127 3.28781 56.9603 2.64478 57.0029ZM245.022 54.5534C245.017 54.8314 245.011 55.0744 245.006 55.2647C239.124 55.2071 235.287 55.167 232.414 55.1395C229.128 55.0944 226.943 55.0493 224.616 55.0017C220.787 54.9241 216.578 54.8439 206.445 54.7613L203.214 54.6085L209.123 54.3931C206.105 54.0324 213.922 53.7144 213.021 53.3437L191.561 53.3487C203.075 53.6718 195.482 54.08 192.122 54.4707L181.056 54.3355C183.52 54.5033 189.861 54.6536 183.362 54.864C182.724 54.869 182.087 54.8765 181.444 54.8815C177.127 54.8464 171.685 55.0168 167.099 54.7763L175.896 53.9849C162.39 54.611 152.202 53.0632 138.672 53.6893L134.555 52.8653L121.797 52.9229L123.236 52.6349L107.935 52.5172C99.663 52.6499 98.4376 53.0306 96.9776 53.3186C90.6053 53.3487 84.4649 53.4689 81.8849 53.2936L89.285 52.7902L82.4515 52.6349C87.1266 52.8002 76.7565 52.9429 75.0751 53.1383C59.7531 53.0231 64.2332 53.0957 54.6221 52.6724C44.6815 53.0005 32.5008 52.3995 31.9368 53.0582C27.0087 52.953 21.991 52.8778 16.9548 52.8202C14.4354 52.7977 11.9134 52.7726 9.39395 52.7501L7.50439 52.7376L6.56357 52.7326L6.5214 52.7276L6.36855 52.7075L6.38173 52.5798V52.5497L6.387 52.5347V52.5272V52.5247V52.4996C6.387 52.0012 6.38963 51.5053 6.39227 51.0094C6.39754 49.0258 6.40281 47.0522 6.40808 45.0986C6.41335 41.1889 6.41599 37.3494 6.42126 33.6125L5.98906 21.7095C6.48187 2.27138 5.7018 71.3272 5.59902 51.1453L5.80458 57.428L5.39873 47.9583C5.81512 32.758 4.79787 26.8246 5.39873 9.16973C5.40664 8.62123 5.41455 8.08274 5.42245 7.55177C5.42772 7.41151 5.43563 7.27376 5.4409 7.13851C5.44881 6.90057 5.45671 6.67015 5.46198 6.45225C5.69126 6.45225 5.91263 6.45225 6.1261 6.45476C6.54512 6.44975 6.95096 6.44724 7.34627 6.44223C9.06189 6.42971 10.6642 6.40717 12.1663 6.37461C15.1733 6.312 17.7797 6.21432 20.0777 6.08909C24.6764 5.84113 28.0444 5.48799 30.917 5.10228C40.6177 4.68151 52.8195 5.28261 61.532 5.33521L55.8475 5.64327L63.0948 5.98389C75.6259 5.83111 76.3005 6.11163 92.6292 5.75347C114.637 6.11413 111.699 4.77167 120.659 4.2407C122.609 4.31333 122.867 4.40851 120.303 4.4611C123.452 4.49617 126.607 4.52622 129.762 4.55628L142.472 5.05469L142.003 4.86935C142.846 4.80173 143.618 4.74412 144.338 4.69153C157.367 4.80423 170.425 4.8944 183.497 4.96453C194.059 5.00961 204.624 5.0572 215.184 5.10228C224.985 5.12983 234.778 5.15738 244.553 5.18493C244.54 12.3506 244.529 19.5012 244.516 26.6342C244.097 46.0598 244.692 -15.3472 243.939 3.72025L244.065 0.549438C244.139 0.0936029 244.171 2.53809 244.202 4.46412C244.347 1.30583 244.484 50.576 244.616 47.6631C244.561 53.326 244.518 6.73076 244.526 12.3511C245.032 18.6025 244.518 44.6002 245.032 52.5923C245.027 53.2911 245.022 53.9648 245.019 54.5634L245.022 54.5534ZM247.589 10.8408C247.583 10.2923 247.578 9.74378 247.573 9.19528C247.589 9.43822 247.602 9.66364 247.612 9.84898C247.604 10.1921 247.597 10.5202 247.589 10.8408Z" fill="url(#paint0_linear_2680_9)"/>
<defs>
<linearGradient id="paint0_linear_2680_9" x1="19" y1="74" x2="244.5" y2="-2.3306e-06" gradientUnits="userSpaceOnUse">
<stop stop-color="#FC8E82"/>
<stop offset="0.175" stop-color="#D83928"/>
<stop offset="0.355" stop-color="#C63425"/>
<stop offset="0.6" stop-color="#721E15"/>
<stop offset="0.865" stop-color="#D83928"/>
</linearGradient>
</defs>
</svg>
