<svg width="430" height="215" viewBox="0 0 430 215" fill="none" xmlns="http://www.w3.org/2000/svg">
<mask id="mask0_2674_35860" style="mask-type:alpha" maskUnits="userSpaceOnUse" x="0" y="0" width="430" height="215">
<g clip-path="url(#clip0_2674_35860)">
<path d="M128.167 137.945C140.261 138.687 149.077 141.769 152.947 154.431C159.865 177.069 144.476 208.258 120.989 213.294L116.213 212.104L116.204 214.49C115.024 214.589 113.804 214.428 112.616 214.49C106.42 212.75 97.5526 212.462 91.0833 213.294C90.6 213.094 89.7937 213.575 89.4229 213.328L88.6489 210.323C91.6706 208.204 96.025 207.1 96.7702 202.834L105.241 149.587C99.8446 140.985 88.6645 144.333 83.8986 151.691C79.4737 158.521 82.773 165.25 81.4798 171.997C80.2334 178.501 70.7364 178.567 70.6503 168.455C70.551 156.821 82.9524 139.918 94.672 137.945C102.893 140.054 112.965 139.252 121.604 139.161C123.627 139.14 126.924 139.926 128.167 137.945ZM120.587 145.321C118.703 145.955 118.199 147.928 117.71 149.617C115.234 158.194 109.279 191.059 109.002 199.601C108.88 203.341 108.907 206.448 113.251 207.283C139.417 212.313 150.604 149.832 130.906 145.375C128.645 144.863 122.621 144.637 120.587 145.321Z" fill="#D83928"/>
<path d="M257.362 198.942L257.559 194.344C265.67 193.364 267.884 174.144 268.158 167.184C268.688 153.722 255.776 156.331 252.703 166.169C251.399 170.343 248.17 188.73 249.597 191.744C250.872 194.438 254.938 194.286 252.577 198.942H231.643L229.853 195.969C231.753 193.325 235.312 192.823 236.738 189.683C238.046 186.802 241.566 167.774 241.442 164.596C241.06 154.749 228.042 157.268 225.354 166.343C224.309 169.875 221.198 185.726 221.372 188.785C221.676 194.134 226.087 193.6 226.316 194.819C226.581 196.235 225.538 198.943 224.465 198.943H202.335C201.284 194.591 205.501 194.801 207.78 191.824C210.141 188.739 215.501 160.631 214.308 159.471L207.144 157.684C207.316 154.095 221.732 148.086 225.087 149.185C226.891 149.776 228.322 152.192 230.435 152.255C232.876 152.328 237.964 148.603 242.322 148.796C247.81 149.04 251.522 154.138 253.35 154.499C255.117 154.848 261.165 150.331 265.108 149.881C294.06 146.579 271.592 183.078 276.624 192.166C277.429 193.62 279.018 194.703 280.082 195.978L278.297 198.944H257.363L257.362 198.942Z" fill="#D83928"/>
<path d="M257.362 123.593C256.066 118.822 261.652 119.109 263.993 116.463C266.395 113.747 270.403 88.607 269.123 84.9161C267.343 79.7852 259.644 82.5109 256.737 85.2941C253.159 88.7195 248.934 112.329 250.809 116.4C251.5 117.9 253.964 119.127 254.966 120.62L253.175 123.594H232.839L231.049 120.621C232.433 118.432 235.547 117.624 237.05 115.845C239.009 113.524 242.893 93.1686 242.91 89.3474C242.927 85.6565 241.102 82.9403 237.458 82.0421C233.859 81.6642 227.852 86.6085 226.572 89.821C224.965 93.8528 222.05 114.555 223.896 117.889C224.905 119.714 228.105 119.388 227.449 122.39C226.273 122.044 224.945 123.595 224.465 123.595H205.325L203.536 120.622C215.207 113.784 213.545 96.234 215.5 84.122H209.508C207.289 77.6013 221.917 72.4561 226.295 73.8482C228.097 74.4211 229.513 76.8359 231.627 76.904C234.287 76.9889 238.697 73.0684 243.588 73.2861C249.22 73.5372 252.492 78.7435 254.546 79.1478C257.962 79.8211 266.405 70.2518 275.63 74.8409C288.618 81.3018 276.21 103.958 277.03 113.477C277.144 114.789 284.721 123.595 279.492 123.595H257.362V123.593Z" fill="#D83928"/>
<path d="M170.036 122.397C167.805 124.514 147.875 124.415 147.313 121.781C148.867 117.335 152.97 117.677 155.079 112.825C156.26 110.109 159.147 92.5623 159.171 89.3438C159.237 80.6894 149.771 81.2862 145.436 86.4387C142.532 89.8892 138.791 109.04 139.034 113.52C139.092 114.601 147.532 123.592 141.924 123.592H121.588L120.347 121.149C121.141 117.466 125.853 118.153 127.185 114.744C130.47 106.33 130.247 93.1088 132.958 84.128C132.367 83.5945 125.515 85.4986 125.779 81.1487C126.197 79.1717 137.651 73.8996 139.824 73.5683C143.681 72.9799 145.245 76.8131 147.889 76.898C150.384 76.9782 155.039 73.237 159.876 73.2562C167.041 73.2837 168.644 78.8523 170.801 79.2267C172.807 79.5759 181.612 71.1345 191.247 74.2836C206.103 79.1394 193.674 101.15 193.852 112.245C193.962 119.123 198.562 118.175 198.802 119.465C199.064 120.882 198.026 123.589 196.951 123.589H176.615L174.826 120.617C176.233 118.004 180.726 116.749 181.737 114.358C182.862 111.701 186.097 89.8294 185.57 87.1443C184.307 80.705 176.989 81.7096 172.985 85.2773C170.671 87.3405 170.971 89.0484 170.034 91.2969C167.843 96.5605 165.383 106.532 165.206 112.322C165.14 114.476 164.913 114.767 166.446 116.413C166.849 116.846 168.187 117.106 168.838 117.609L170.034 122.393L170.036 122.397Z" fill="#D83928"/>
<path d="M63.2822 63.5039C52.3342 70.0569 51.9957 52.5365 40.3838 59.1552C29.4118 65.408 51.0004 85.4927 54.9839 92.1114C73.6262 123.079 49.2706 151.514 15.6526 144.591C9.58288 143.342 -3.92868 135.935 2.03698 128.449C8.15098 120.778 12.3486 130.6 15.6718 133.807C28.2323 145.929 49.0015 130.843 48.9931 115.819C48.9847 100.313 19.5775 79.8834 22.4784 66.4677C25.6341 51.8751 45.9475 46.2969 58.4195 51.5988C64.5132 54.1894 66.7214 57.0036 63.281 63.5051L63.2822 63.5039Z" fill="#D83928"/>
<path d="M380.574 129.573C383.974 133.991 388.972 135.157 394.39 134.405C401.764 133.38 403.235 125.862 409.92 123.625C418.005 130.45 406.03 138.683 398.832 140.051C379.181 143.785 367.121 133.407 368.763 113.569C369.362 106.334 380.851 74.5384 362.182 84.2847C356.391 87.3082 352.85 105.983 352.951 112.249C353.061 119.127 357.661 118.179 357.901 119.469C358.163 120.885 357.125 123.593 356.05 123.593H335.714L333.924 120.62C343.338 114.992 340.88 112.563 342.436 104.001C343.463 98.3391 345.543 91.4847 345.895 85.9089C346.112 82.4835 342.134 84.6638 339.897 84.1196C337.777 77.1792 353.253 72.3748 357.591 74.1712C359.178 74.829 358.557 77.1193 360.791 77.0631C368.196 76.8766 379.47 66.3875 384.163 81.7336C384.114 84.5203 384.234 87.3202 384.163 90.1057C384.153 90.5028 384.19 90.9058 384.163 91.3017L382.967 96.0858C382.921 96.4793 383.018 96.8907 382.967 97.2818C381.028 98.3032 381.841 101.346 381.77 103.262C381.705 103.649 381.84 104.072 381.77 104.458L380.574 109.242C380.51 109.629 380.636 110.049 380.574 110.438C378.659 111.445 379.419 114.498 379.378 116.418C379.37 116.816 379.384 117.216 379.378 117.614C377.42 118.818 377.456 123.658 379.378 124.79C379.414 125.185 379.323 125.597 379.378 125.986C379.657 127.937 379.159 127.735 380.574 129.574V129.573Z" fill="#D83928"/>
<path d="M98.261 121.201C94.1794 121.061 92.8612 124.134 89.2282 124.729C59.4262 129.618 73.2153 101.066 74.3409 84.1268C69.8658 84.6746 63.735 82.3974 69.2126 78.0857C71.5381 76.2558 87.5463 69.3177 88.7329 74.1592C90.7606 80.9657 77.1999 116.326 89.4614 116.169C103.045 111.911 100.363 96.1169 103.091 84.7667L97.5732 83.0217L97.2275 78.2891C100.984 77.1768 114.423 69.1216 117.221 73.5397C119.601 77.2987 111.526 105.727 111.349 112.37C111.279 114.991 112.143 115.069 112.615 116.417C113.143 117.925 112.86 119.443 115.007 120.005C115.074 120.346 115.037 120.846 115.007 121.201C109.746 124.41 102.95 121.361 98.261 121.201Z" fill="#D83928"/>
<path d="M344.687 160.669C342.318 158.369 337.091 160.663 337.517 155.907C343.526 153.969 350.304 146.866 356.909 149.99C357.978 150.496 357.559 152.452 359.59 152.416C363.435 152.348 367.205 148.682 371.604 148.685C396.449 148.704 375.004 185.367 380.486 192.494C381.332 193.593 384.029 193.806 384.218 194.818C384.483 196.234 383.441 198.942 382.368 198.942H360.237C359.17 194.446 363.588 194.297 365.701 191.846C367.692 189.534 372.13 168.343 372.152 164.675C372.208 155.263 358.832 156.974 355.48 166.079C354.25 169.421 350.862 190.548 352.128 192.718C352.947 194.123 359.883 195.011 354.854 198.943H334.518L332.725 195.965C339.426 192.366 339.116 189.808 341.097 183.395C342.582 178.588 343.102 176.554 343.49 171.435C343.52 171.039 343.474 170.636 343.49 170.239C345.419 169.224 344.626 166.177 344.686 164.259C344.698 163.862 344.691 163.46 344.686 163.063L345.876 161.273L344.686 160.671L344.687 160.669Z" fill="#D83928"/>
<path d="M312.103 72.4202C331.399 69.7279 340.277 90.4262 332.935 106.46C321.051 132.415 279.561 130.933 284.953 96.7591C286.564 86.5427 302.02 73.8267 312.104 72.4202H312.103ZM310.903 79.5448C298.259 81.6427 292.757 109.228 303.147 115.482C323.898 127.975 330.993 76.2104 310.903 79.5448Z" fill="#D83928"/>
<path d="M307.291 148.994C348.575 141.991 338.235 200.61 304.671 200.168C272.751 199.747 280.162 153.595 307.291 148.994ZM311.5 193C313 192 313.725 191.174 314.864 190.075C324.405 180.87 325.422 151.708 307.575 156.45C294.275 159.983 291.587 193.928 308.252 194.277C309.285 194.277 310.5 193.667 311.5 193Z" fill="#D83928"/>
<path d="M173.648 181.039C173.299 182.991 174.056 184.585 174.984 186.221C175.451 187.043 181.808 193.614 182.292 193.819C187.45 196.007 193.124 190.195 198.744 191.777C191.264 204.691 169.428 203.994 162.198 190.63C149.338 166.861 180.941 138.372 198.182 152.261C213.097 164.277 185.529 181.494 173.647 181.038L173.648 181.039ZM173.624 172.632C179.665 175.097 193.92 164.287 189.296 158.781C183.212 151.533 170.711 165.044 173.624 172.632Z" fill="#D83928"/>
<path d="M413.287 165.044C418.121 170.478 429.186 175.792 428.211 184.861C426.644 199.453 401.743 204.955 391.424 197.063C384.085 191.45 388.033 182.371 397.169 184.746L401.76 195.406C433.226 190.014 401.005 177.483 397.032 167.536C388.539 146.265 426.344 142.827 429.445 154.36C430.243 157.329 428.514 161.398 425.411 161.911C418.759 163.012 421.118 158.097 418.945 155.198C416.069 151.357 410.266 155.094 409.684 158.886C409.702 159.942 412.365 164.01 413.286 165.044H413.287Z" fill="#D83928"/>
<path d="M106.635 53.9576C103.819 53.7005 100.433 54.5915 100.661 50.3911C102.356 50.232 103.82 49.335 104.923 48.0756C107.216 45.4551 112.484 17.4768 112.655 12.6281C113.04 1.69055 95.7727 6.44231 94.9234 16.5546C94.6399 19.9346 95.5679 26.0169 94.5107 27.4778C93.4534 28.9388 92.9073 28.946 91.6544 28.9388C90.2701 28.9309 88.5479 26.7196 88.5479 26.7196C88.5479 26.7196 93.3335 6.4459 101.009 3.41759C103.259 2.53014 104.392 4.02427 107.832 3.72497L128.168 3.72497C127.089 6.48298 123.564 6.31674 122.449 9.36897C121.539 11.8639 116.754 40.9318 116.892 43.3765C116.959 44.5545 117.06 46.2326 118.238 46.8186C120.918 47.4417 123.4 48.1952 126.228 47.9297C132.731 47.3185 135.318 41.36 141.32 40.8074C141.659 45.5269 137.806 49.2082 134.148 51.5656C131.538 51.4185 128.532 51.562 126.971 53.9576C124.638 54.1741 122.156 53.8583 119.793 53.9576L119.195 52.7855L118.597 53.9576C117.407 53.9935 116.2 53.9779 115.008 53.9576L114.41 52.7855L113.812 53.9576C111.827 53.911 109.807 54.0808 107.831 53.9576L107.233 51.5536L106.635 53.9576Z" fill="#D83928"/>
<path d="M174.815 47.054C178.84 50.9673 164.343 54.9046 162.088 54.9967C138.503 55.9547 142.129 19.6329 162.23 17.1237C179.935 14.9122 182.24 28.3519 169.944 35.5937C165.954 37.9439 150.923 38.518 158.608 45.9225C165.092 52.1693 173.376 45.6546 174.816 47.0551L174.815 47.054ZM162.504 22.1266C159.669 22.9447 152.74 31.3455 157.431 33.6933C165.726 34.9132 172.726 19.176 162.504 22.1266Z" fill="#D83928"/>
<path d="M247.461 17.4597C251.428 21.7725 246.848 26.7958 241.816 25.528C243.106 15.6836 231.173 18.6282 235.218 26.7324C236.61 29.5227 244.635 32.319 246.886 39.0107C251.166 51.7279 229.483 58.2199 220.338 52.3737C215.222 49.1026 216.341 46.225 219.87 42.1741C225.65 41.8177 224.382 45.5804 226.162 47.6961C228.996 51.0641 236.385 50.1073 237.083 45.1881C237.58 39.2666 222.118 33.7841 222.678 25.0101C223.277 15.6118 241.85 11.3588 247.461 17.4597Z" fill="#D83928"/>
<path d="M199.936 5.19337L198.761 15.9264L203.528 16.5292C208.47 22.7951 199.02 20.4354 196.938 23.1157C195.348 25.1608 191.888 47.8421 194.14 49.2689L201.132 50.032C171.848 66.696 189.92 31.8502 188.069 22.7449C187.768 21.2594 183.318 21.6733 184.466 17.8305C184.617 17.3257 190.202 13.1923 191.603 11.799C194.341 9.07444 195.163 4.36453 199.936 5.19337Z" fill="#D83928"/>
<path d="M216.321 20.36C215.302 21.2235 211.383 23.1288 210.125 23.1419C207.475 19.1772 214.399 16.9418 215.281 13.8991C216.058 11.2153 212.619 -0.909928 220.712 0.583895C228.89 2.09327 220.092 17.1666 216.322 20.3588L216.321 20.36Z" fill="#D83928"/>
<path d="M128.167 137.945C126.925 139.926 123.627 139.141 121.604 139.161C112.965 139.252 102.893 140.054 94.6721 137.945C101.755 136.751 120.286 137.462 128.167 137.945Z" fill="#D83928"/>
<path d="M166.447 116.417C164.915 114.77 165.142 114.478 165.208 112.325C165.385 106.535 167.844 96.5641 170.036 91.3004L166.447 116.417Z" fill="#D83928"/>
<path d="M115.009 121.201C114.872 122.797 114.876 124.027 113.042 124.609C110.285 125.485 97.9381 126.387 98.2611 121.201C102.95 121.361 109.747 124.41 115.009 121.201Z" fill="#D83928"/>
<path d="M112.616 214.49C106.716 214.797 96.0455 215.343 91.0835 213.294C97.5528 212.462 106.421 212.75 112.616 214.49Z" fill="#D83928"/>
<path d="M134.149 51.5522C133.477 51.9852 133.068 53.0126 131.831 53.4156C129.987 54.016 128.672 53.7864 126.972 53.9443C128.533 51.5487 131.539 51.4051 134.149 51.5522Z" fill="#D83928"/>
<path d="M384.163 90.1044C384.234 87.3189 384.114 84.519 384.163 81.7323C384.911 84.1758 387.136 87.6011 384.163 90.1044Z" fill="#D83928"/>
<path d="M120.99 213.294C119.45 213.624 118.864 214.266 116.205 214.49L116.213 212.104L120.99 213.294Z" fill="#D83928"/>
<path d="M379.378 124.789C377.456 123.656 377.42 118.817 379.378 117.613C379.344 119.915 379.173 122.56 379.378 124.789Z" fill="#D83928"/>
<path d="M379.378 116.417C379.419 114.497 378.659 111.444 380.574 110.437C380.283 112.238 381.478 115.387 379.378 116.417Z" fill="#D83928"/>
<path d="M381.771 103.261C381.841 101.345 381.028 98.3019 382.967 97.2805C382.67 99.529 382.059 101.561 381.771 103.261Z" fill="#D83928"/>
<path d="M343.491 170.238C343.569 168.319 342.745 165.274 344.688 164.257C344.628 166.176 345.421 169.223 343.491 170.238Z" fill="#D83928"/>
<path d="M341.098 183.394L343.491 171.433C343.103 176.552 342.583 178.587 341.098 183.394Z" fill="#D83928"/>
<path d="M380.574 109.241L381.771 104.457C381.436 106.33 380.724 108.35 380.574 109.241Z" fill="#D83928"/>
<path d="M382.967 96.0845L384.164 91.3004C383.994 93.7642 383.021 95.618 382.967 96.0845Z" fill="#D83928"/>
<path d="M170.036 122.397L168.84 117.613C169.574 118.181 170.731 118.202 171.11 119.567L170.036 122.397Z" fill="#D83928"/>
<path d="M380.575 129.573C379.16 127.734 379.657 127.936 379.378 125.985L380.575 129.573Z" fill="#D83928"/>
<path d="M115.008 120.005C112.861 119.443 113.145 117.925 112.616 116.417C113.707 117.262 114.744 118.665 115.008 120.005Z" fill="#D83928"/>
<path d="M107.833 53.9443C107.436 53.9192 107.031 53.9801 106.636 53.9443L107.235 51.5403L107.833 53.9443Z" fill="#D83928"/>
<path d="M344.687 163.061C344.676 162.265 344.694 161.467 344.687 160.669L345.877 161.272L344.687 163.061Z" fill="#D83928"/>
<path d="M119.795 53.9443C119.397 53.9611 118.997 53.9323 118.599 53.9443L119.197 52.7722L119.795 53.9443Z" fill="#D83928"/>
<path d="M115.01 53.9443C114.612 53.9371 114.212 53.9539 113.814 53.9443L114.412 52.7722L115.01 53.9443Z" fill="#D83928"/>
</g>
</mask>
<g mask="url(#mask0_2674_35860)">
<rect width="430" height="223.062" transform="matrix(1 0 0 -1 0 223.062)" fill="url(#paint0_linear_2674_35860)"/>
</g>
<defs>
<linearGradient id="paint0_linear_2674_35860" x1="215" y1="0" x2="215" y2="223.062" gradientUnits="userSpaceOnUse">
<stop stop-color="#D83928"/>
<stop offset="0.25" stop-color="#D83928"/>
<stop offset="0.425" stop-color="#C63425"/>
<stop offset="1" stop-color="#721E15"/>
</linearGradient>
<clipPath id="clip0_2674_35860">
<rect width="430" height="215" fill="white"/>
</clipPath>
</defs>
</svg>
