<svg width="424" height="212" viewBox="0 0 424 212" fill="none" xmlns="http://www.w3.org/2000/svg">
<g clip-path="url(#clip0_2314_30)">
<path d="M126.379 136.02C138.304 136.751 146.997 139.791 150.813 152.276C157.634 174.598 142.461 205.352 119.301 210.318L114.591 209.144L114.583 211.497C113.419 211.595 112.216 211.436 111.044 211.497C104.936 209.781 96.1916 209.497 89.8126 210.318C89.336 210.121 88.541 210.595 88.1753 210.351L87.4122 207.388C90.3917 205.299 94.6853 204.21 95.4202 200.003L103.773 147.5C98.4516 139.018 87.4275 142.319 82.7282 149.574C78.365 156.309 81.6182 162.944 80.3431 169.597C79.114 176.01 69.7496 176.075 69.6646 166.105C69.5667 154.632 81.7952 137.966 93.3512 136.02C101.457 138.099 111.389 137.309 119.908 137.22C121.902 137.198 125.153 137.973 126.379 136.02ZM118.905 143.293C117.047 143.918 116.549 145.864 116.068 147.529C113.627 155.986 107.755 188.393 107.481 196.816C107.361 200.503 107.388 203.567 111.671 204.391C137.472 209.351 148.502 147.742 129.08 143.346C126.85 142.841 120.91 142.619 118.905 143.293Z" fill="white"/>
<path d="M253.771 196.166L253.965 191.633C261.963 190.666 264.146 171.714 264.416 164.851C264.939 151.577 252.207 154.15 249.176 163.85C247.891 167.966 244.707 186.097 246.114 189.069C247.372 191.725 251.381 191.575 249.053 196.166H228.41L226.646 193.234C228.519 190.628 232.028 190.133 233.434 187.037C234.725 184.196 238.195 165.433 238.073 162.299C237.696 152.59 224.86 155.074 222.21 164.022C221.179 167.505 218.112 183.134 218.283 186.151C218.582 191.425 222.933 190.899 223.158 192.101C223.42 193.497 222.391 196.167 221.333 196.167H199.511C198.476 191.876 202.634 192.083 204.881 189.148C207.209 186.105 212.494 158.39 211.318 157.246L204.253 155.484C204.423 151.945 218.638 146.02 221.946 147.104C223.725 147.686 225.136 150.068 227.219 150.131C229.627 150.203 234.643 146.529 238.94 146.72C244.352 146.961 248.012 151.987 249.815 152.343C251.557 152.688 257.521 148.233 261.408 147.79C289.957 144.534 267.803 180.523 272.764 189.485C273.558 190.918 275.124 191.986 276.174 193.244L274.414 196.168H253.772L253.771 196.166Z" fill="white"/>
<path d="M253.77 121.868C252.493 117.164 258 117.447 260.309 114.838C262.677 112.16 266.63 87.3707 265.368 83.7313C263.613 78.672 256.021 81.3596 253.155 84.1039C249.627 87.4815 245.46 110.761 247.309 114.776C247.991 116.255 250.42 117.465 251.408 118.937L249.642 121.87H229.59L227.825 118.938C229.19 116.78 232.26 115.982 233.742 114.229C235.674 111.94 239.504 91.8686 239.52 88.1007C239.537 84.4613 237.738 81.783 234.144 80.8974C230.596 80.5247 224.672 85.4 223.41 88.5677C221.826 92.5432 218.951 112.956 220.771 116.244C221.767 118.044 224.922 117.722 224.275 120.682C223.115 120.341 221.806 121.871 221.333 121.871H202.46L200.695 118.939C212.204 112.197 210.565 94.8912 212.493 82.9482H206.585C204.397 76.5185 218.82 71.4451 223.137 72.8178C224.914 73.3827 226.31 75.7637 228.395 75.831C231.018 75.9147 235.366 72.0489 240.189 72.2635C245.742 72.5112 248.968 77.6448 250.994 78.0434C254.363 78.7073 262.688 69.2716 271.783 73.7966C284.591 80.1674 272.355 102.507 273.165 111.894C273.277 113.187 280.748 121.871 275.592 121.871H253.77V121.868Z" fill="white"/>
<path d="M167.663 120.689C165.463 122.776 145.812 122.678 145.257 120.082C146.79 115.698 150.836 116.035 152.915 111.251C154.079 108.573 156.927 91.2707 156.95 88.0971C157.015 79.5635 147.681 80.152 143.407 85.2325C140.543 88.6349 136.854 107.518 137.094 111.936C137.152 113.002 145.473 121.867 139.944 121.867H119.891L118.668 119.459C119.451 115.827 124.097 116.505 125.41 113.142C128.649 104.846 128.43 91.8096 131.103 82.9541C130.52 82.4281 123.764 84.3055 124.024 80.0163C124.436 78.0669 135.73 72.8684 137.873 72.5418C141.676 71.9615 143.218 75.7413 145.826 75.825C148.285 75.904 152.876 72.2151 157.645 72.234C164.711 72.2611 166.291 77.752 168.418 78.1212C170.396 78.4655 179.078 70.1418 188.579 73.247C203.228 78.0351 190.972 99.7382 191.147 110.679C191.255 117.461 195.792 116.526 196.028 117.798C196.286 119.195 195.263 121.865 194.203 121.865H174.151L172.387 118.934C173.774 116.357 178.205 115.12 179.201 112.763C180.31 110.142 183.501 88.5759 182.981 85.9283C181.735 79.5788 174.52 80.5695 170.572 84.0874C168.289 86.1217 168.585 87.8058 167.662 90.0229C165.501 95.2131 163.076 105.045 162.901 110.754C162.836 112.878 162.612 113.166 164.123 114.789C164.521 115.216 165.841 115.472 166.482 115.968L167.662 120.685L167.663 120.689Z" fill="white"/>
<path d="M62.3992 62.6178C51.604 69.0793 51.2701 51.8033 39.8202 58.3297C29.0014 64.4953 50.2888 84.2997 54.2167 90.8261C72.5988 121.361 48.5831 149.4 15.4342 142.574C9.44915 141.341 -3.87388 134.038 2.00854 126.656C8.03723 119.092 12.1763 128.778 15.4531 131.94C27.8384 143.892 48.3177 129.017 48.3095 114.203C48.3012 98.9127 19.3043 78.7686 22.1647 65.5401C25.2764 51.1512 45.3063 45.6508 57.6043 50.8787C63.613 53.4332 65.7904 56.2081 62.398 62.6189L62.3992 62.6178Z" fill="white"/>
<path d="M375.264 127.765C378.616 132.121 383.544 133.271 388.886 132.529C396.158 131.519 397.608 124.105 404.2 121.9C412.172 128.629 400.364 136.748 393.267 138.097C373.889 141.779 361.998 131.546 363.617 111.984C364.208 104.851 375.536 73.4982 357.128 83.1085C351.418 86.0899 347.926 104.504 348.025 110.682C348.134 117.465 352.67 116.529 352.906 117.802C353.165 119.198 352.142 121.868 351.082 121.868H331.029L329.265 118.936C338.547 113.388 336.124 110.993 337.657 102.55C338.67 96.9668 340.722 90.2081 341.068 84.7101C341.282 81.3325 337.36 83.4824 335.154 82.9458C333.064 76.1021 348.324 71.3648 352.601 73.1361C354.166 73.7848 353.554 76.0432 355.756 75.9877C363.058 75.8038 374.175 65.4611 378.802 80.593C378.754 83.3409 378.872 86.1017 378.802 88.8483C378.793 89.2398 378.829 89.6373 378.802 90.0276L377.623 94.7449C377.578 95.1329 377.673 95.5386 377.623 95.9243C375.711 96.9314 376.513 99.9316 376.443 101.821C376.378 102.203 376.512 102.619 376.443 103L375.264 107.718C375.2 108.1 375.325 108.514 375.264 108.897C373.375 109.89 374.124 112.901 374.084 114.794C374.076 115.186 374.09 115.58 374.084 115.973C372.153 117.16 372.189 121.932 374.084 123.049C374.119 123.438 374.03 123.845 374.084 124.228C374.359 126.152 373.868 125.952 375.264 127.766V127.765Z" fill="white"/>
<path d="M96.8897 119.51C92.8651 119.372 91.5652 122.401 87.9829 122.989C58.5968 127.81 72.1934 99.6557 73.3034 82.9529C68.8907 83.4931 62.8455 81.2476 68.2467 76.9962C70.5397 75.1918 86.3245 68.3505 87.4946 73.1244C89.4939 79.836 76.1225 114.703 88.2129 114.548C101.607 110.35 98.9622 94.7757 101.653 83.5839L96.2115 81.8632L95.8706 77.1966C99.5744 76.0999 112.827 68.1571 115.586 72.5135C117.932 76.2202 109.97 104.252 109.795 110.802C109.726 113.387 110.578 113.463 111.043 114.792C111.565 116.28 111.285 117.776 113.402 118.33C113.468 118.666 113.432 119.159 113.402 119.51C108.215 122.674 101.514 119.668 96.8897 119.51Z" fill="white"/>
<path d="M339.878 158.427C337.541 156.16 332.387 158.422 332.807 153.731C338.732 151.821 345.416 144.817 351.929 147.897C352.982 148.396 352.57 150.324 354.572 150.289C358.363 150.222 362.081 146.607 366.419 146.611C390.917 146.629 369.771 182.781 375.177 189.808C376.011 190.892 378.671 191.102 378.857 192.1C379.118 193.496 378.09 196.166 377.032 196.166H355.211C354.158 191.733 358.514 191.585 360.598 189.169C362.562 186.889 366.938 165.994 366.959 162.377C367.014 153.097 353.825 154.783 350.519 163.762C349.307 167.057 345.966 187.889 347.214 190.029C348.022 191.414 354.861 192.289 349.903 196.167H329.85L328.082 193.231C334.69 189.682 334.384 187.159 336.338 180.836C337.802 176.096 338.315 174.09 338.697 169.043C338.726 168.652 338.681 168.255 338.697 167.863C340.599 166.863 339.817 163.858 339.876 161.967C339.888 161.575 339.881 161.179 339.876 160.787L341.05 159.023L339.876 158.429L339.878 158.427Z" fill="white"/>
<path d="M307.748 71.4097C326.775 68.755 335.529 89.1644 328.29 104.974C316.571 130.567 275.661 129.106 280.977 95.4089C282.566 85.3351 297.806 72.7965 307.749 71.4097H307.748ZM306.565 78.4349C294.097 80.5034 288.672 107.703 298.917 113.87C319.378 126.189 326.374 75.1469 306.565 78.4349Z" fill="white"/>
<path d="M303.003 146.915C343.711 140.01 333.515 197.811 300.42 197.375C268.946 196.96 276.253 151.452 303.003 146.915ZM306.15 189.603C307.517 188.858 309.348 188.506 310.471 187.422C319.879 178.346 320.881 149.591 303.284 154.267C290.169 157.751 287.519 191.222 303.951 191.567C305.849 191.607 305.617 189.894 306.15 189.603Z" fill="white"/>
<path d="M171.225 178.513C170.881 180.437 171.627 182.009 172.543 183.623C173.003 184.433 179.271 190.912 179.749 191.115C184.835 193.272 190.429 187.541 195.971 189.101C188.595 201.835 167.064 201.147 159.934 187.97C147.254 164.533 178.416 136.441 195.417 150.137C210.123 161.984 182.94 178.962 171.224 178.511L171.225 178.513ZM171.202 170.223C177.158 172.654 191.214 161.995 186.655 156.565C180.656 149.419 168.329 162.741 171.202 170.223Z" fill="white"/>
<path d="M407.52 162.741C412.287 168.099 423.198 173.339 422.236 182.282C420.691 196.669 396.138 202.095 385.963 194.313C378.726 188.779 382.619 179.826 391.627 182.168L396.154 192.68C427.181 187.362 395.41 175.006 391.493 165.198C383.118 144.224 420.395 140.834 423.453 152.206C424.239 155.134 422.535 159.146 419.475 159.652C412.916 160.738 415.242 155.891 413.1 153.032C410.264 149.245 404.542 152.929 403.968 156.669C403.985 157.71 406.611 161.721 407.519 162.741H407.52Z" fill="white"/>
<path d="M105.147 53.2047C102.37 52.9512 99.0321 53.8298 99.2562 49.688C100.928 49.5311 102.371 48.6466 103.459 47.4048C105.72 44.8209 110.915 17.2329 111.084 12.4519C111.463 1.66696 94.4365 6.35243 93.5991 16.3236C93.3195 19.6564 94.2346 25.6538 93.1921 27.0944C92.1496 28.535 91.6111 28.5421 90.3757 28.535C89.0108 28.5272 87.3125 26.3468 87.3125 26.3468C87.3125 26.3468 92.0314 6.35596 99.5994 3.36991C101.818 2.49485 102.936 3.96813 106.328 3.673L126.38 3.673C125.316 6.39253 121.84 6.2286 120.741 9.23824C119.843 11.6983 115.125 40.3607 115.262 42.7712C115.328 43.9329 115.427 45.5875 116.589 46.1653C119.231 46.7798 121.678 47.5227 124.467 47.2609C130.879 46.6583 133.43 40.7829 139.348 40.238C139.683 44.8917 135.884 48.5216 132.277 50.8461C129.703 50.701 126.739 50.8425 125.199 53.2047C122.899 53.4182 120.452 53.1068 118.122 53.2047L117.532 52.049L116.942 53.2047C115.769 53.2401 114.579 53.2248 113.404 53.2047L112.814 52.049L112.224 53.2047C110.267 53.1587 108.275 53.3262 106.326 53.2047L105.737 50.8343L105.147 53.2047Z" fill="white"/>
<path d="M172.375 46.3973C176.345 50.2561 162.05 54.1384 159.826 54.2292C136.57 55.1739 140.145 19.3589 159.966 16.8847C177.424 14.7041 179.697 27.9562 167.572 35.097C163.638 37.4144 148.817 37.9805 156.395 45.2817C162.788 51.4413 170.956 45.0175 172.377 46.3985L172.375 46.3973ZM160.237 21.8178C157.441 22.6245 150.609 30.9081 155.234 33.2231C163.413 34.426 170.316 18.9084 160.237 21.8178Z" fill="white"/>
<path d="M244.009 17.2161C247.92 21.4688 243.403 26.4219 238.442 25.1718C239.714 15.4648 227.948 18.3683 231.936 26.3594C233.309 29.1108 241.221 31.8681 243.441 38.4664C247.662 51.0062 226.281 57.4076 217.263 51.643C212.218 48.4175 213.323 45.5801 216.802 41.5857C222.502 41.2343 221.251 44.9444 223.007 47.0307C225.801 50.3517 233.087 49.4082 233.775 44.5576C234.265 38.7188 219.019 33.3127 219.571 24.6612C220.162 15.394 238.475 11.2004 244.009 17.2161Z" fill="white"/>
<path d="M197.146 5.12085L195.988 15.7041L200.688 16.2985C205.561 22.477 196.242 20.1502 194.19 22.7931C192.622 24.8097 189.21 47.1745 191.431 48.5814L198.326 49.3338C169.45 65.7654 187.27 31.4057 185.445 22.4275C185.148 20.9628 180.76 21.3708 181.892 17.5816C182.041 17.0839 187.548 13.0082 188.929 11.6343C191.629 8.94777 192.44 4.30358 197.146 5.12085Z" fill="white"/>
<path d="M213.303 20.0759C212.298 20.9274 208.434 22.8061 207.193 22.8191C204.58 18.9096 211.407 16.7054 212.277 13.7052C213.043 11.0588 209.652 -0.897204 217.632 0.575775C225.696 2.06409 217.021 16.9271 213.304 20.0748L213.303 20.0759Z" fill="white"/>
<path d="M126.379 136.02C125.154 137.973 121.902 137.2 119.907 137.22C111.389 137.309 101.457 138.099 93.3511 136.02C100.335 134.843 118.608 135.544 126.379 136.02Z" fill="white"/>
<path d="M164.124 114.792C162.613 113.168 162.838 112.881 162.902 110.758C163.077 105.049 165.502 95.2167 167.663 90.0265L164.124 114.792Z" fill="white"/>
<path d="M113.404 119.51C113.269 121.084 113.273 122.296 111.464 122.871C108.746 123.734 96.5714 124.623 96.8899 119.51C101.514 119.668 108.216 122.674 113.404 119.51Z" fill="white"/>
<path d="M111.044 211.497C105.227 211.8 94.7053 212.338 89.8125 210.318C96.1915 209.497 104.936 209.781 111.044 211.497Z" fill="white"/>
<path d="M132.277 50.8329C131.614 51.2598 131.211 52.2729 129.991 52.6703C128.173 53.2623 126.876 53.0359 125.2 53.1916C126.739 50.8294 129.703 50.6879 132.277 50.8329Z" fill="white"/>
<path d="M378.803 88.8472C378.872 86.1006 378.754 83.3398 378.803 80.5919C379.54 83.0013 381.734 86.3789 378.803 88.8472Z" fill="white"/>
<path d="M119.301 210.318C117.783 210.643 117.205 211.277 114.583 211.497L114.591 209.144L119.301 210.318Z" fill="white"/>
<path d="M374.085 123.048C372.189 121.931 372.154 117.159 374.085 115.972C374.051 118.242 373.882 120.849 374.085 123.048Z" fill="white"/>
<path d="M374.084 114.792C374.124 112.9 373.375 109.889 375.264 108.896C374.977 110.672 376.156 113.777 374.084 114.792Z" fill="white"/>
<path d="M376.443 101.82C376.513 99.9304 375.711 96.9302 377.623 95.9231C377.33 98.1402 376.728 100.144 376.443 101.82Z" fill="white"/>
<path d="M338.699 167.862C338.775 165.97 337.962 162.968 339.878 161.965C339.819 163.857 340.601 166.862 338.699 167.862Z" fill="white"/>
<path d="M336.339 180.835L338.698 169.041C338.316 174.089 337.803 176.095 336.339 180.835Z" fill="white"/>
<path d="M375.264 107.716L376.444 102.999C376.113 104.846 375.412 106.838 375.264 107.716Z" fill="white"/>
<path d="M377.624 94.7438L378.803 90.0265C378.636 92.4559 377.677 94.2839 377.624 94.7438Z" fill="white"/>
<path d="M167.663 120.689L166.484 115.972C167.208 116.532 168.349 116.553 168.723 117.899L167.663 120.689Z" fill="white"/>
<path d="M375.265 127.765C373.869 125.951 374.36 126.151 374.085 124.227L375.265 127.765Z" fill="white"/>
<path d="M113.404 118.33C111.286 117.776 111.566 116.279 111.044 114.792C112.12 115.626 113.143 117.009 113.404 118.33Z" fill="white"/>
<path d="M106.328 53.1915C105.936 53.1667 105.538 53.2269 105.148 53.1915L105.738 50.821L106.328 53.1915Z" fill="white"/>
<path d="M339.878 160.786C339.867 160.001 339.885 159.214 339.878 158.427L341.051 159.022L339.878 160.786Z" fill="white"/>
<path d="M118.123 53.1915C117.731 53.208 117.337 53.1797 116.944 53.1915L117.534 52.0358L118.123 53.1915Z" fill="white"/>
<path d="M113.405 53.1915C113.012 53.1844 112.618 53.2009 112.226 53.1915L112.815 52.0358L113.405 53.1915Z" fill="white"/>
</g>
<defs>
<clipPath id="clip0_2314_30">
<rect width="424" height="212" fill="white"/>
</clipPath>
</defs>
</svg>
