<svg width="48" height="48" viewBox="0 0 48 48" fill="none" xmlns="http://www.w3.org/2000/svg">
<path id="Vector" d="M36.7092 44.5014C37.0091 44.269 37.2816 44.0715 37.5391 43.893C37.7896 43.7051 38.0231 43.5312 38.2582 43.3633C38.497 43.1979 38.7197 43.0194 38.9571 42.8315C39.1921 42.6404 39.4464 42.4455 39.7016 42.1961L40.4461 41.835C40.9886 41.2745 41.0777 41.1224 41.1271 41.0056C41.1771 40.8903 41.1847 40.8034 41.5282 40.3591C41.6621 40.2444 41.8088 40.108 41.9652 39.9576C42.1148 39.8001 42.2712 39.6277 42.4329 39.4466C42.7658 39.0907 43.0765 38.6687 43.3811 38.2739C43.6766 37.87 43.9377 37.4708 44.1569 37.1448C44.3627 36.8091 44.5243 36.5454 44.6158 36.4061C44.9502 36.0684 44.422 36.9666 44.3501 37.1907C44.5804 36.7989 44.7368 36.5045 44.8605 36.2548C44.9748 35.9987 45.0586 35.7866 45.1498 35.5656C45.2443 35.3461 45.3422 35.1146 45.4725 34.8088C45.6006 34.5038 45.792 34.1392 46.0127 33.625L46.0808 33.6153C46.5666 32.368 47.0089 31.0118 47.3395 29.5763C47.6681 28.1417 47.8896 26.6298 47.9665 25.0939C48.046 23.558 47.9852 21.9996 47.7712 20.478C47.5596 18.9562 47.1951 17.4736 46.7026 16.0957C46.8195 16.4756 46.7365 16.3954 46.7417 16.5543C46.2799 15.0881 45.6596 13.6098 44.8859 12.2065C44.1136 10.8026 43.1908 9.47425 42.1604 8.29424C41.1339 7.1113 40.0061 6.07733 38.8612 5.2254C37.7142 4.37521 36.5476 3.71263 35.4587 3.23413C36.1726 3.614 36.9568 4.1563 37.7732 4.76855C38.57 5.40538 39.3949 6.12065 40.1573 6.90147C41.6898 8.45901 43.0055 10.2077 43.997 11.5442C44.1136 11.8313 44.282 12.1354 44.4436 12.4524C44.6015 12.7737 44.7789 13.0936 44.933 13.4015C45.0788 13.714 45.2136 14.0055 45.3124 14.2543C45.4112 14.5031 45.4562 14.7149 45.4544 14.8513C45.6693 15.3989 45.8318 15.9181 45.9969 16.4007C46.0823 16.6418 46.1413 16.8824 46.2127 17.111C46.2784 17.3433 46.3571 17.5634 46.4117 17.7844C46.6473 18.6641 46.8449 19.4642 46.9946 20.2711C47.0656 20.6741 47.1501 21.0774 47.1928 21.4939C47.2474 21.9088 47.3044 22.3344 47.3246 22.7824C47.338 23.0066 47.3524 23.2358 47.3664 23.4711C47.3664 23.7078 47.3664 23.9499 47.3679 24.2001C47.3778 24.7005 47.3284 25.2288 47.2895 25.8009C47.1773 26.4477 47.1054 26.1194 46.9826 26.2941C46.9826 26.2941 46.9884 26.2379 46.9984 26.1398C47.0057 26.0424 47.0267 25.9037 47.0305 25.736C47.0425 25.3988 47.0761 24.9514 47.0799 24.5027C47.0738 24.0555 47.0872 23.6075 47.0656 23.2718C47.0478 22.9375 47.0349 22.7151 47.0349 22.7151C47.0349 22.7151 47.0326 22.85 47.0305 23.0552C47.0291 23.2583 47.0267 23.5317 47.0042 23.8029C46.9864 24.0742 46.9683 24.3461 46.9542 24.5484C46.9496 24.6511 46.9399 24.7357 46.9332 24.7933C46.9256 24.8524 46.9221 24.8864 46.9221 24.8864C46.9236 24.6511 46.9069 24.3312 46.9092 23.9812C46.9078 23.8068 46.9078 23.6238 46.9078 23.4395C46.8981 23.256 46.8896 23.071 46.88 22.891C46.8642 22.5316 46.842 22.1936 46.7946 21.9314C46.752 21.6683 46.7049 21.481 46.6526 21.4213C46.9116 22.9452 46.9101 24.9777 46.6377 26.9242C46.3667 28.8751 45.8219 30.7203 45.4433 32.0338C45.9671 30.8599 46.3802 29.3021 46.6713 27.8142C46.8747 27.1744 47.044 26.1472 47.1404 26.2259C47.1217 26.5007 47.1054 26.772 47.0881 27.041C47.0545 27.3079 47.0224 27.5736 46.9893 27.8367C46.973 27.9678 46.9542 28.0989 46.9376 28.23C46.9136 28.3588 46.8882 28.4879 46.8642 28.6158C46.8134 28.8727 46.764 29.1282 46.7146 29.3817C46.6511 29.6325 46.5874 29.8827 46.5231 30.1309L46.4258 30.5023L46.3091 30.8672C46.2305 31.1107 46.1519 31.3536 46.0741 31.5948L45.8002 32.308C45.6281 32.7882 45.3992 33.2454 45.1943 33.7157C45.0774 33.9466 44.9622 34.1766 44.8447 34.4081C44.7862 34.524 44.7272 34.6396 44.6681 34.7564C44.6029 34.8702 44.5386 34.9835 44.4743 35.0988C44.344 35.3279 44.2124 35.5574 44.0815 35.7889C43.9385 36.0157 43.7956 36.2437 43.6512 36.4737C43.5112 36.7067 43.3525 36.9314 43.1955 37.1606C43.0344 37.3862 42.8871 37.6265 42.7111 37.8492C42.0587 38.7896 40.9713 39.899 40.7694 39.9596C41.2557 39.3962 40.8082 39.7439 41.1909 39.2698C40.6738 39.8765 40.7118 39.9716 40.6767 40.12C40.6594 40.1934 40.625 40.2827 40.4814 40.4475C40.3362 40.6099 40.102 40.8692 39.6583 41.2491C39.6583 41.2491 39.6545 41.1338 39.6516 41.0176C39.6463 40.9023 39.6416 40.7861 39.6416 40.7861C39.4247 41.228 38.8837 41.6963 38.226 42.1505C37.5742 42.6164 36.8115 43.0668 36.172 43.598C35.8838 43.6937 35.9624 43.5807 36.2392 43.3545C36.3778 43.2427 36.5677 43.101 36.787 42.9468C37.0077 42.7926 37.245 42.6029 37.5017 42.4209C37.2009 42.6126 36.9808 42.7806 36.7946 42.9131C36.6066 43.0472 36.4608 43.1634 36.3237 43.2772C36.0536 43.5111 35.8022 43.7104 35.3047 43.9928C35.3047 43.9928 35.5005 43.7926 35.6967 43.5918C35.8943 43.3963 36.0761 43.1821 36.0761 43.1821C35.8659 43.4127 35.6286 43.5731 35.3982 43.7171C35.167 43.857 34.9402 43.9726 34.7119 44.049C34.2571 44.2076 33.8514 44.3045 33.5184 44.3928C33.4728 44.4903 34.1574 44.4476 32.7619 45.0431C32.1414 45.2454 32.4237 45.0528 32.2656 45.0677C32.2402 45.1181 32.1139 45.2252 31.8765 45.3674C31.6357 45.4985 31.2788 45.656 30.8044 45.8207C30.6015 45.7827 31.3887 45.4619 31.415 45.3428C30.7114 45.6012 30.1227 45.7736 29.5802 45.8403C28.3101 46.2217 29.7012 45.9633 28.9336 46.2553C28.4305 46.3601 28.1561 46.3595 28.0257 46.3475C27.8933 46.3303 27.9009 46.2793 27.945 46.2179C28.0356 46.0935 28.2727 45.9249 27.8912 45.8837C28.0731 45.8336 28.2622 45.7827 28.4539 45.7294C28.6439 45.6709 28.8368 45.6124 29.0324 45.5518C29.422 45.4447 29.8067 45.3083 30.1703 45.1824C30.5378 45.0671 30.873 44.9255 31.1665 44.8078C31.3124 44.7487 31.4486 44.6931 31.5705 44.6422C31.6895 44.5869 31.7959 44.5336 31.8847 44.488C31.8847 44.488 31.8444 44.5058 31.7719 44.536C31.6991 44.5652 31.5983 44.6153 31.4717 44.6595C31.2212 44.7531 30.8844 44.8775 30.5498 45.0019C30.2078 45.1104 29.8666 45.219 29.61 45.3001C29.4828 45.3428 29.3744 45.3683 29.2978 45.3876C29.2224 45.4087 29.1788 45.4192 29.1788 45.4192C29.2484 45.3419 28.7658 45.4014 28.4487 45.4215C28.2899 45.435 28.171 45.423 28.183 45.3961C28.1949 45.3683 28.3379 45.3174 28.6948 45.2021C27.309 45.4567 25.7682 45.6574 24.2275 45.7122C22.6873 45.7727 21.1527 45.6882 19.8081 45.4889C19.9952 45.5421 20.2083 45.5974 20.3647 45.6478C20.521 45.6958 20.6228 45.728 20.5766 45.7616C19.1683 45.5989 19.3521 45.471 19.0902 45.3241C18.0584 45.1742 18.1221 45.3914 17.4553 45.3621C16.4323 44.9706 15.8623 44.7271 15.3347 44.4871C15.0675 44.3732 14.8205 44.2392 14.5393 44.0812C14.3969 44.0016 14.2487 43.9155 14.0851 43.8181C13.9263 43.7133 13.755 43.5948 13.5648 43.4631L13.5732 43.6989C13.0222 43.3349 12.6902 43.1663 12.328 43.0112C12.1482 42.9348 11.9688 42.8493 11.7644 42.7264C11.561 42.6029 11.3231 42.4584 11.0492 42.2312C11.0071 42.1557 11.4891 42.4089 11.8805 42.6C11.6095 42.4464 11.4172 42.3205 11.2684 42.2111C11.1225 42.0963 11.0199 41.9939 10.9168 41.895C10.7116 41.6933 10.5005 41.5136 10.0059 41.1636C10.0059 41.1636 10.2298 41.2663 10.4526 41.3691C10.6803 41.4618 10.9077 41.5549 10.9077 41.5549C10.5096 41.2918 10.0457 40.9263 9.72532 40.6737C9.41781 40.4024 9.26962 40.2294 9.51807 40.3164C9.34211 40.2025 9.15357 40.0714 8.95597 39.9283C8.76597 39.7761 8.56837 39.6075 8.36201 39.4308C8.15388 39.2578 7.95249 39.0585 7.74758 38.8531C7.54033 38.6494 7.32841 38.4404 7.13111 38.2124C6.93351 37.9856 6.72012 37.7676 6.53071 37.5299C6.33867 37.2946 6.14691 37.0596 5.95925 36.8287C5.7789 36.5914 5.60206 36.3567 5.43018 36.1304C5.25275 35.9071 5.10455 35.675 4.94583 35.4652L5.1712 35.4863C5.07532 35.3874 4.97068 35.2606 4.85843 35.1131C4.74531 34.9653 4.64066 34.7895 4.52403 34.6036C4.41179 34.4154 4.28522 34.2199 4.1759 34.008C4.06599 33.7953 3.95433 33.5787 3.84208 33.3613C3.72458 33.1465 3.63104 32.9217 3.53019 32.7095C3.42906 32.4982 3.33259 32.2936 3.24052 32.1034C3.07069 31.7191 2.90671 31.3993 2.76026 31.2014L2.77663 31.0252C2.77663 31.0252 2.71904 30.9023 2.63369 30.7174C2.55068 30.5315 2.42499 30.2866 2.32239 30.0349C2.21979 29.7808 2.1166 29.5262 2.03943 29.3375C1.95876 29.1469 1.9152 29.0167 1.9152 29.0167C1.71468 28.0471 2.0523 28.3193 1.96256 28.2564C1.88977 27.9977 1.84651 27.7401 1.79477 27.4899C1.74917 27.2388 1.69159 26.9976 1.66002 26.7585C1.59718 26.2797 1.51796 25.8296 1.49779 25.3965C1.46476 24.9657 1.43495 24.558 1.44459 24.1708C1.44605 23.7848 1.44839 23.4193 1.48727 23.0739C1.42968 22.987 1.38613 22.7786 1.35252 22.4866C1.31744 22.1936 1.32709 21.8199 1.33089 21.3973C1.33615 20.9747 1.39373 20.5102 1.43495 20.0352C1.46944 19.7999 1.50598 19.5617 1.54193 19.3264C1.57847 19.0911 1.61296 18.8581 1.6647 18.6363C2.16454 16.4981 2.9675 14.3942 4.05634 12.4336C4.59039 11.4468 5.22118 10.5141 5.89261 9.61356C6.56374 8.71011 7.31438 7.87018 8.10595 7.08057C8.49734 6.67817 8.91651 6.30883 9.33246 5.93656C9.76361 5.58273 10.1839 5.2172 10.6361 4.89498C11.0746 4.55403 11.5394 4.25434 11.9951 3.94442C12.4663 3.65966 12.9272 3.35997 13.4116 3.10828C13.8866 2.83552 14.3806 2.60754 14.8661 2.37019C15.1116 2.25781 15.3607 2.15655 15.6071 2.04885L15.978 1.89081L16.3539 1.75063C17.3489 1.35875 18.3659 1.07399 19.3732 0.829037C19.6777 0.773724 20.0078 0.692656 20.3588 0.604273C20.7105 0.532278 21.0831 0.446236 21.4655 0.356389C21.8531 0.284979 22.2503 0.211814 22.6464 0.138941C23.0466 0.0874329 23.4485 0.0394364 23.8428 0.000512445C23.3608 -0.00182885 22.9875 0.00402438 22.6695 0.0145602C22.3515 0.0394364 22.0896 0.0701659 21.83 0.100017C21.699 0.117284 21.571 0.133088 21.4348 0.149477C21.2986 0.171134 21.1571 0.19601 21.0022 0.222057C20.6932 0.275321 20.3287 0.31366 19.8648 0.405848C19.5132 0.457357 19.2095 0.470819 18.9414 0.502427C18.6719 0.528473 18.4311 0.542229 18.1922 0.551886C17.9552 0.556276 17.7246 0.577348 17.4755 0.599883C17.2265 0.625344 16.9546 0.649343 16.6465 0.70846C16.6465 0.70846 16.6875 0.70846 16.7488 0.706997C16.8117 0.70846 16.8965 0.710801 16.9795 0.713728C17.144 0.718118 17.3101 0.724264 17.3101 0.724264C16.8529 0.889618 16.5498 1.01107 16.3224 1.0898C16.0955 1.16852 15.9453 1.20511 15.8082 1.24023C15.5343 1.31749 15.3107 1.39095 14.6396 1.76936L14.5706 1.44333C14.3537 1.63151 13.9225 1.83286 13.4765 2.01344C13.0418 2.21274 12.5817 2.37546 12.3151 2.48111L11.9875 2.92976C11.4186 3.17179 10.9802 3.43021 10.6084 3.59673C10.2433 3.77584 9.96939 3.90227 9.75367 3.92715L9.9729 4.02373C9.86153 4.06704 9.55549 4.25288 9.20443 4.5271C9.02642 4.66202 8.83116 4.8104 8.63356 4.96171C8.4421 5.12062 8.24742 5.28246 8.06648 5.43436C7.69526 5.73053 7.39126 6.01353 7.21704 6.12533C7.04342 6.24064 7.00688 6.19557 7.21558 5.8751C7.09954 6.01734 7.00074 6.16572 6.8578 6.34336C6.71632 6.52306 6.54211 6.74343 6.25916 7.02058L6.02502 6.96819C5.28052 7.84998 4.53134 8.88542 4.24634 9.09057C4.57694 8.55793 4.64651 8.34516 4.70263 8.12186C4.50971 8.36155 4.34193 8.57754 4.1946 8.77069C4.05634 8.97 3.93796 9.14676 3.83624 9.30422C3.63104 9.6159 3.49862 9.85032 3.42175 10.0362C3.2601 10.4017 3.27209 10.5419 3.29664 10.6668C3.32353 10.7936 3.34838 10.8992 3.25016 11.2124C3.15312 11.5255 2.89852 12.023 2.43317 12.9754L2.33583 12.8718C2.33583 12.8718 2.31332 12.9364 2.27971 13.0321C2.24522 13.129 2.20868 13.2601 2.16834 13.3904C2.08883 13.6497 2.01108 13.9095 2.01108 13.9095C2.01108 13.9095 1.85031 14.1472 1.71322 14.3965C1.5697 14.6453 1.42735 14.8926 1.42735 14.8926C1.36596 15.6913 0.862319 17.0817 0.510676 18.6618C0.144124 20.2328 -0.0751048 21.9861 0.0505866 23.265C0.0467866 23.5158 0.0549712 23.7871 0.0400636 24.0824C0.0304175 24.3783 -0.00027459 24.6991 0.00352536 25.0482C-0.010213 25.7471 0.00937146 26.5668 0.186801 27.5145L0.367738 27.3579C0.3768 28.1355 0.663259 29.9494 1.18035 31.711C1.68545 33.4745 2.41446 35.1646 2.60008 35.9191C2.81784 36.225 2.93389 36.3605 2.97569 36.4003C3.01749 36.4407 2.98767 36.3821 2.93389 36.2855C2.82369 36.093 2.63808 35.7333 2.71525 35.7078C2.81697 35.8585 2.91197 36.0008 3.00112 36.1348C3.09378 36.2668 3.18147 36.3897 3.26449 36.505C3.42906 36.7389 3.56469 36.9493 3.68892 37.136C3.94702 37.503 4.12504 37.7968 4.27236 38.0635C4.42728 38.3228 4.55297 38.5519 4.69006 38.7992C4.82394 39.05 4.98558 39.3049 5.21446 39.6137C6.4664 40.9023 4.37583 38.5235 5.12618 39.1536C5.3343 39.424 5.51699 39.6517 5.68069 39.8466C5.84525 40.0407 6.00251 40.1911 6.13961 40.3289C6.41788 40.6011 6.64529 40.7943 6.90048 40.9854C7.02617 41.0843 7.1542 41.1853 7.29714 41.2985C7.36817 41.3571 7.44153 41.4168 7.52017 41.482C7.60084 41.5464 7.68619 41.614 7.77827 41.6866C7.95862 41.8321 8.16207 42.0036 8.39708 42.2087C8.6397 42.4051 8.91651 42.6337 9.23658 42.9055C9.43126 43.2032 8.50114 42.4396 8.1875 42.2716C9.16555 42.9521 10.5394 43.9448 12.1506 44.8318C13.755 45.7256 15.6033 46.4824 17.3033 46.932C17.7801 47.0991 18.2995 47.2197 18.8397 47.3642C19.1107 47.431 19.3895 47.4825 19.6748 47.5425C19.8178 47.5717 19.9607 47.601 20.1051 47.6308C20.2518 47.6525 20.3983 47.6759 20.5465 47.6985C21.7318 47.9007 23.0054 47.9905 24.3008 47.9987C25.5975 48.0131 26.9184 47.9059 28.1987 47.7081C28.8415 47.6227 29.4679 47.481 30.0835 47.3543C30.3896 47.2788 30.6921 47.2039 30.99 47.1289C31.2899 47.0593 31.5781 46.9604 31.8645 46.8778L31.9245 46.7789C32.4123 46.6765 32.8862 46.4927 33.3746 46.3197C33.6163 46.2261 33.8528 46.1152 34.0946 46.008C34.334 45.898 34.5786 45.7924 34.816 45.6618C35.0539 45.536 35.2948 45.4095 35.538 45.2822C35.7791 45.1502 36.0147 45.0042 36.257 44.8655C36.3792 44.7958 36.5002 44.7253 36.6224 44.6542C36.7428 44.5807 36.8633 44.5058 36.9831 44.4294C37.2269 44.2805 37.4716 44.1306 37.72 43.9784C37.72 43.9784 37.6586 44.0144 37.5622 44.0616C37.4681 44.111 37.3406 44.1763 37.2135 44.2415C36.9606 44.3718 36.7092 44.5014 36.7092 44.5014Z" fill="url(#paint0_linear_2674_35907)"/>
<defs>
<linearGradient id="paint0_linear_2674_35907" x1="0" y1="24" x2="48" y2="24" gradientUnits="userSpaceOnUse">
<stop stop-color="#D83928"/>
<stop offset="0.18" stop-color="#C63425"/>
<stop offset="1" stop-color="#721E15"/>
</linearGradient>
</defs>
</svg>
