<svg width="26" height="26" viewBox="0 0 26 26" fill="none" xmlns="http://www.w3.org/2000/svg">
<g id="wpf:audio-wave">
<path id="Vector" d="M18.813 2.03103C18.5938 2.07805 18.3982 2.20111 18.2609 2.37845C18.1237 2.5558 18.0536 2.77598 18.063 3.00003V22C18.0408 22.136 18.0483 22.2751 18.0852 22.4079C18.122 22.5406 18.1873 22.6637 18.2765 22.7687C18.3657 22.8737 18.4766 22.958 18.6017 23.0158C18.7267 23.0737 18.8628 23.1036 19.0005 23.1036C19.1383 23.1036 19.2744 23.0737 19.3994 23.0158C19.5244 22.958 19.6354 22.8737 19.7246 22.7687C19.8137 22.6637 19.879 22.5406 19.9159 22.4079C19.9528 22.2751 19.9603 22.136 19.938 22V3.00003C19.9412 2.86648 19.9162 2.73376 19.8646 2.61053C19.813 2.48731 19.736 2.37635 19.6386 2.28491C19.5412 2.19346 19.4256 2.12359 19.2994 2.07984C19.1732 2.0361 19.0391 2.01947 18.906 2.03103C18.8751 2.02959 18.844 2.02959 18.813 2.03103ZM6.81304 3.03103C6.59376 3.07805 6.39819 3.20111 6.26093 3.37845C6.12367 3.5558 6.05357 3.77598 6.06304 4.00003V21C6.04076 21.136 6.04832 21.2751 6.08518 21.4079C6.12205 21.5406 6.18733 21.6637 6.27651 21.7687C6.3657 21.8737 6.47664 21.958 6.60166 22.0158C6.72668 22.0737 6.86279 22.1036 7.00054 22.1036C7.13829 22.1036 7.27439 22.0737 7.39941 22.0158C7.52443 21.958 7.63538 21.8737 7.72456 21.7687C7.81374 21.6637 7.87903 21.5406 7.91589 21.4079C7.95275 21.2751 7.96031 21.136 7.93804 21V4.00003C7.94121 3.86648 7.91618 3.73376 7.86458 3.61053C7.81298 3.48731 7.73597 3.37635 7.63859 3.28491C7.5412 3.19346 7.42561 3.12359 7.29939 3.07984C7.17316 3.0361 7.03913 3.01947 6.90604 3.03103C6.87505 3.02959 6.84402 3.02959 6.81304 3.03103ZM15.813 6.03103C15.5938 6.07805 15.3982 6.20111 15.2609 6.37845C15.1237 6.5558 15.0536 6.77598 15.063 7.00003V18C15.0403 18.1362 15.0475 18.2756 15.0841 18.4087C15.1207 18.5417 15.1858 18.6652 15.275 18.7705C15.3642 18.8759 15.4753 18.9605 15.6005 19.0185C15.7257 19.0766 15.862 19.1067 16 19.1067C16.138 19.1067 16.2744 19.0766 16.3996 19.0185C16.5248 18.9605 16.6359 18.8759 16.725 18.7705C16.8142 18.6652 16.8794 18.5417 16.916 18.4087C16.9526 18.2756 16.9598 18.1362 16.937 18V7.00003C16.9402 6.86666 16.9152 6.73413 16.8637 6.61105C16.8122 6.48798 16.7354 6.37712 16.6383 6.28571C16.5411 6.1943 16.4258 6.12437 16.2998 6.0805C16.1738 6.03662 16.04 6.01976 15.907 6.03103C15.8754 6.02953 15.8447 6.02953 15.813 6.03103ZM3.81304 7.03103C3.59376 7.07805 3.39819 7.20111 3.26093 7.37845C3.12367 7.5558 3.05357 7.77598 3.06304 8.00003V17C3.04028 17.1362 3.04746 17.2756 3.08407 17.4087C3.12068 17.5417 3.18584 17.6652 3.27502 17.7705C3.3642 17.8759 3.47526 17.9605 3.60047 18.0185C3.72568 18.0766 3.86203 18.1067 4.00004 18.1067C4.13805 18.1067 4.2744 18.0766 4.39961 18.0185C4.52481 17.9605 4.63587 17.8759 4.72505 17.7705C4.81423 17.6652 4.87939 17.5417 4.916 17.4087C4.95261 17.2756 4.95979 17.1362 4.93704 17V8.00003C4.94018 7.86666 4.9152 7.73413 4.86372 7.61105C4.81224 7.48798 4.73542 7.37712 4.63825 7.28571C4.54108 7.1943 4.42575 7.12437 4.29977 7.0805C4.17378 7.03662 4.03997 7.01976 3.90704 7.03103C3.87539 7.02953 3.84469 7.02953 3.81304 7.03103ZM9.81304 8.03103C9.59376 8.07805 9.39819 8.20111 9.26093 8.37845C9.12367 8.5558 9.05357 8.77598 9.06304 9.00003V16C9.04028 16.1362 9.04746 16.2756 9.08407 16.4087C9.12068 16.5417 9.18584 16.6652 9.27502 16.7705C9.3642 16.8759 9.47526 16.9605 9.60047 17.0185C9.72568 17.0766 9.86203 17.1067 10 17.1067C10.138 17.1067 10.2744 17.0766 10.3996 17.0185C10.5248 16.9605 10.6359 16.8759 10.7251 16.7705C10.8142 16.6652 10.8794 16.5417 10.916 16.4087C10.9526 16.2756 10.9598 16.1362 10.937 16V9.00003C10.9402 8.86666 10.9152 8.73413 10.8637 8.61105C10.8122 8.48798 10.7354 8.37712 10.6383 8.28571C10.5411 8.1943 10.4258 8.12437 10.2998 8.0805C10.1738 8.03662 10.04 8.01976 9.90704 8.03103C9.87539 8.02953 9.84469 8.02953 9.81304 8.03103ZM21.813 8.03103C21.5938 8.07805 21.3982 8.20111 21.2609 8.37845C21.1237 8.5558 21.0536 8.77598 21.063 9.00003V16C21.0408 16.136 21.0483 16.2751 21.0852 16.4079C21.122 16.5406 21.1873 16.6637 21.2765 16.7687C21.3657 16.8737 21.4766 16.958 21.6017 17.0158C21.7267 17.0737 21.8628 17.1036 22.0005 17.1036C22.1383 17.1036 22.2744 17.0737 22.3994 17.0158C22.5244 16.958 22.6354 16.8737 22.7246 16.7687C22.8137 16.6637 22.879 16.5406 22.9159 16.4079C22.9528 16.2751 22.9603 16.136 22.938 16V9.00003C22.9412 8.86648 22.9162 8.73376 22.8646 8.61053C22.813 8.48731 22.736 8.37635 22.6386 8.28491C22.5412 8.19346 22.4256 8.12359 22.2994 8.07984C22.1732 8.0361 22.0391 8.01947 21.906 8.03103C21.8751 8.02959 21.844 8.02959 21.813 8.03103ZM0.813037 10.031C0.593764 10.078 0.398191 10.2011 0.26093 10.3785C0.123669 10.5558 0.053569 10.776 0.0630372 11V14C0.0407647 14.136 0.0483213 14.2751 0.085183 14.4079C0.122045 14.5406 0.18733 14.6637 0.276513 14.7687C0.365696 14.8737 0.476643 14.958 0.601663 15.0158C0.726684 15.0737 0.862787 15.1036 1.00054 15.1036C1.13829 15.1036 1.27439 15.0737 1.39941 15.0158C1.52443 14.958 1.63538 14.8737 1.72456 14.7687C1.81374 14.6637 1.87903 14.5406 1.91589 14.4079C1.95275 14.2751 1.96031 14.136 1.93804 14V11C1.94121 10.8665 1.91618 10.7338 1.86458 10.6105C1.81298 10.4873 1.73597 10.3764 1.63858 10.2849C1.5412 10.1935 1.42561 10.1236 1.29939 10.0798C1.17316 10.0361 1.03913 10.0195 0.906037 10.031C0.874721 10.0296 0.843353 10.0296 0.812037 10.031H0.813037ZM12.813 10.031C12.5938 10.078 12.3982 10.2011 12.2609 10.3785C12.1237 10.5558 12.0536 10.776 12.063 11V14C12.0403 14.1362 12.0475 14.2756 12.0841 14.4087C12.1207 14.5417 12.1858 14.6652 12.275 14.7705C12.3642 14.8759 12.4753 14.9605 12.6005 15.0185C12.7257 15.0766 12.862 15.1067 13 15.1067C13.138 15.1067 13.2744 15.0766 13.3996 15.0185C13.5248 14.9605 13.6359 14.8759 13.7251 14.7705C13.8142 14.6652 13.8794 14.5417 13.916 14.4087C13.9526 14.2756 13.9598 14.1362 13.937 14V11C13.9402 10.8667 13.9152 10.7341 13.8637 10.6111C13.8122 10.488 13.7354 10.3771 13.6383 10.2857C13.5411 10.1943 13.4258 10.1244 13.2998 10.0805C13.1738 10.0366 13.04 10.0198 12.907 10.031C12.8754 10.0295 12.8447 10.0295 12.813 10.031ZM24.813 10.031C24.5938 10.078 24.3982 10.2011 24.2609 10.3785C24.1237 10.5558 24.0536 10.776 24.063 11V14C24.0408 14.136 24.0483 14.2751 24.0852 14.4079C24.122 14.5406 24.1873 14.6637 24.2765 14.7687C24.3657 14.8737 24.4766 14.958 24.6017 15.0158C24.7267 15.0737 24.8628 15.1036 25.0005 15.1036C25.1383 15.1036 25.2744 15.0737 25.3994 15.0158C25.5244 14.958 25.6354 14.8737 25.7246 14.7687C25.8137 14.6637 25.879 14.5406 25.9159 14.4079C25.9528 14.2751 25.9603 14.136 25.938 14V11C25.9412 10.8665 25.9162 10.7338 25.8646 10.6105C25.813 10.4873 25.736 10.3764 25.6386 10.2849C25.5412 10.1935 25.4256 10.1236 25.2994 10.0798C25.1732 10.0361 25.0391 10.0195 24.906 10.031C24.8751 10.0296 24.844 10.0296 24.813 10.031Z" fill="white"/>
</g>
</svg>
